M48
;Layer_Color=9474304
;FILE_FORMAT=2:5
INCH,TZ
;TYPE=PLATED
T1F00S00C0.01260
T2F00S00C0.03543
T4F00S00C0.05906
;TYPE=NON_PLATED
T5F00S00C0.05512
%
T01
X138000Y139000
X152000Y146500
X162500Y143500
X170500Y152000
X183500Y135000
X197000Y145000
X231000Y165000
X246744Y193244
X249500Y202500
X231000Y231500
X237500Y262000
X238500Y278500
X217500Y275000
X213000Y279000
X202000Y265000
X180500Y264000
Y259000
X176500Y269000
X164500Y268500
X161500Y271000
X165000Y277500
X156500Y294000
X157500Y298657
X191500Y291177
Y308500
X253500Y267500
X178500Y207000
X157000Y166500
X135000Y192000
X112000Y231500
X126500Y246500
X125500Y269000
X154000Y272500
X151000Y287000
X154000Y290500
X136500Y297000
X141000Y307000
X144000Y311000
X150500
X164000Y321000
X159500Y327000
X190500Y341000
T02
X161500Y224000
X171500
X181500
X191500
X201500
Y240500
X211500
X191500
X181500
X171500
X161500
X267500Y244000
Y234000
Y254000
Y264000
Y274000
Y284000
Y307000
Y212500
Y202500
Y192500
Y182500
Y172500
Y162500
X151500Y240500
X110500Y254000
Y264000
Y274000
Y284000
Y305000
Y315000
Y325000
Y335000
Y345000
Y355000
Y365000
X267500Y367000
Y357000
Y347000
Y337000
Y327000
Y317000
Y377000
T04
X183658Y367657
Y387343
X203343
Y367657
X193500Y377500
T05
X152610Y117000
X170327
M30
