G04*
G04 #@! TF.GenerationSoftware,Altium Limited,Altium Designer,18.0.9 (584)*
G04*
G04 Layer_Color=12632256*
%FSLAX25Y25*%
%MOIN*%
G70*
G01*
G75*
%ADD60C,0.09843*%
%ADD61C,0.05906*%
%ADD62R,0.05906X0.05906*%
%ADD63C,0.06000*%
%ADD64O,0.05512X0.14961*%
%ADD65R,0.05906X0.05906*%
D60*
X183658Y387343D02*
D03*
X203343D02*
D03*
Y367657D02*
D03*
X183658D02*
D03*
X193500Y377500D02*
D03*
D61*
X161500Y224000D02*
D03*
X171500D02*
D03*
X181500D02*
D03*
X191500D02*
D03*
X211500Y240500D02*
D03*
X201500D02*
D03*
X191500D02*
D03*
X181500D02*
D03*
X161500D02*
D03*
X171500D02*
D03*
X110500Y365000D02*
D03*
Y355000D02*
D03*
Y345000D02*
D03*
Y335000D02*
D03*
Y315000D02*
D03*
Y325000D02*
D03*
X267500Y172500D02*
D03*
Y182500D02*
D03*
Y192500D02*
D03*
Y202500D02*
D03*
Y212500D02*
D03*
Y317000D02*
D03*
Y327000D02*
D03*
Y337000D02*
D03*
Y347000D02*
D03*
Y357000D02*
D03*
Y367000D02*
D03*
Y377000D02*
D03*
Y244000D02*
D03*
Y254000D02*
D03*
Y264000D02*
D03*
Y274000D02*
D03*
Y284000D02*
D03*
X110500D02*
D03*
Y274000D02*
D03*
Y264000D02*
D03*
D62*
X201500Y224000D02*
D03*
X151500Y240500D02*
D03*
D63*
X170327Y117000D02*
D03*
X152610D02*
D03*
D64*
X184500D02*
D03*
X138437D02*
D03*
D65*
X110500Y305000D02*
D03*
X267500Y162500D02*
D03*
Y307000D02*
D03*
Y234000D02*
D03*
X110500Y254000D02*
D03*
M02*
