G04*
G04 #@! TF.GenerationSoftware,Altium Limited,Altium Designer,18.0.9 (584)*
G04*
G04 Layer_Color=32768*
%FSLAX25Y25*%
%MOIN*%
G70*
G01*
G75*
%ADD68C,0.00197*%
%ADD69C,0.00394*%
D68*
X144894Y154394D02*
X169106D01*
X144894Y178606D02*
X169106D01*
X144894Y154394D02*
Y178606D01*
X169106Y154394D02*
Y178606D01*
X140232Y199327D02*
Y227673D01*
X106768Y199327D02*
Y227673D01*
Y199327D02*
X140232D01*
X106768Y227673D02*
X140232D01*
X197693Y178886D02*
X234307D01*
X197693Y202114D02*
X234307D01*
Y178886D02*
Y202114D01*
X197693Y178886D02*
Y202114D01*
X230142Y152205D02*
Y177795D01*
X197858Y152205D02*
Y177795D01*
Y152205D02*
X230142D01*
X197858Y177795D02*
X230142D01*
X229949Y125205D02*
Y150795D01*
X197665Y125205D02*
Y150795D01*
Y125205D02*
X229949D01*
X197665Y150795D02*
X229949D01*
X135949Y132705D02*
Y158295D01*
X103665Y132705D02*
Y158295D01*
Y132705D02*
X135949D01*
X103665Y158295D02*
X135949D01*
D69*
X157000Y164532D02*
Y168468D01*
X155032Y166500D02*
X158968D01*
X121531Y213500D02*
X125469D01*
X123500Y211531D02*
Y215469D01*
X170335Y359677D02*
X174665D01*
X170335Y350228D02*
X174665D01*
Y359677D01*
X170335Y350228D02*
Y359677D01*
X172500Y353083D02*
Y356823D01*
X170630Y354953D02*
X174370D01*
X170335Y345724D02*
X174665D01*
X170335Y336276D02*
X174665D01*
Y345724D01*
X170335Y336276D02*
Y345724D01*
X172500Y339130D02*
Y342870D01*
X170630Y341000D02*
X174370D01*
X216276Y262835D02*
Y267165D01*
X225724Y262835D02*
Y267165D01*
X216276D02*
X225724D01*
X216276Y262835D02*
X225724D01*
X219130Y265000D02*
X222870D01*
X221000Y263130D02*
Y266870D01*
X216000Y188531D02*
Y192469D01*
X214032Y190500D02*
X217969D01*
X182128Y200309D02*
X185190Y203372D01*
X188810Y193628D02*
X191872Y196690D01*
X185190Y203372D02*
X191872Y196690D01*
X182128Y200309D02*
X188810Y193628D01*
X185678Y199822D02*
X188322Y197178D01*
X185678Y197178D02*
X188322Y199822D01*
X127335Y287276D02*
X131665D01*
X127335Y296724D02*
X131665D01*
X127335Y287276D02*
Y296724D01*
X131665Y287276D02*
Y296724D01*
X129500Y290130D02*
Y293870D01*
X127630Y292000D02*
X131370D01*
X118823Y229335D02*
Y233665D01*
X128272Y229335D02*
Y233665D01*
X118823D02*
X128272D01*
X118823Y229335D02*
X128272D01*
X121677Y231500D02*
X125417D01*
X123547Y229630D02*
Y233370D01*
X213335Y216228D02*
X217665D01*
X213335Y225677D02*
X217665D01*
X213335Y216228D02*
Y225677D01*
X217665Y216228D02*
Y225677D01*
X215500Y219083D02*
Y222823D01*
X213630Y220953D02*
X217370D01*
X224335Y112020D02*
X228665D01*
X224335Y121468D02*
X228665D01*
X224335Y112020D02*
Y121468D01*
X228665Y112020D02*
Y121468D01*
X226500Y114874D02*
Y118614D01*
X224630Y116744D02*
X228370D01*
X230724Y272835D02*
Y277165D01*
X221276Y272835D02*
Y277165D01*
Y272835D02*
X230724D01*
X221276Y277165D02*
X230724D01*
X224130Y275000D02*
X227870D01*
X226000Y273130D02*
Y276870D01*
X217835Y112031D02*
X222165D01*
X217835Y121480D02*
X222165D01*
X217835Y112031D02*
Y121480D01*
X222165Y112031D02*
Y121480D01*
X220000Y114886D02*
Y118626D01*
X218130Y116756D02*
X221870D01*
X236335Y157276D02*
X240665D01*
X236335Y166724D02*
X240665D01*
X236335Y157276D02*
Y166724D01*
X240665Y157276D02*
Y166724D01*
X238500Y160130D02*
Y163870D01*
X236630Y162000D02*
X240370D01*
X266335Y138276D02*
X270665D01*
X266335Y147724D02*
X270665D01*
X266335Y138276D02*
Y147724D01*
X270665Y138276D02*
Y147724D01*
X268500Y141130D02*
Y144870D01*
X266630Y143000D02*
X270370D01*
X266335Y122728D02*
X270665D01*
X266335Y132177D02*
X270665D01*
X266335Y122728D02*
Y132177D01*
X270665Y122728D02*
Y132177D01*
X268500Y125583D02*
Y129323D01*
X266630Y127453D02*
X270370D01*
X212032Y165000D02*
X215968D01*
X214000Y163031D02*
Y166969D01*
X211839Y138000D02*
X215776D01*
X213807Y136031D02*
Y139969D01*
X119276Y189835D02*
Y194165D01*
X128724Y189835D02*
Y194165D01*
X119276D02*
X128724D01*
X119276Y189835D02*
X128724D01*
X122130Y192000D02*
X125870D01*
X124000Y190130D02*
Y193870D01*
X117839Y145500D02*
X121776D01*
X119807Y143532D02*
Y147468D01*
X181335Y137776D02*
X185665D01*
X181335Y147224D02*
X185665D01*
X181335Y137776D02*
Y147224D01*
X185665Y137776D02*
Y147224D01*
X183500Y140630D02*
Y144370D01*
X181630Y142500D02*
X185370D01*
X173335Y137776D02*
X177665D01*
X173335Y147224D02*
X177665D01*
X173335Y137776D02*
Y147224D01*
X177665Y137776D02*
Y147224D01*
X175500Y140630D02*
Y144370D01*
X173630Y142500D02*
X177370D01*
X189335Y137776D02*
X193665D01*
X189335Y147224D02*
X193665D01*
X189335Y137776D02*
Y147224D01*
X193665Y137776D02*
Y147224D01*
X191500Y140630D02*
Y144370D01*
X189630Y142500D02*
X193370D01*
X185835Y154776D02*
X190165D01*
X185835Y164224D02*
X190165D01*
X185835Y154776D02*
Y164224D01*
X190165Y154776D02*
Y164224D01*
X188000Y157630D02*
Y161370D01*
X186130Y159500D02*
X189870D01*
M02*
