G04*
G04 #@! TF.GenerationSoftware,Altium Limited,Altium Designer,18.0.9 (584)*
G04*
G04 Layer_Physical_Order=1*
G04 Layer_Color=255*
%FSLAX25Y25*%
%MOIN*%
G70*
G01*
G75*
%ADD15O,0.00984X0.04134*%
%ADD16O,0.04134X0.00984*%
%ADD17R,0.12323X0.12323*%
%ADD18P,0.08949X8X22.5*%
%ADD19R,0.08465X0.03937*%
%ADD20R,0.08465X0.12795*%
%ADD21R,0.03543X0.02756*%
%ADD22R,0.01181X0.04331*%
%ADD23R,0.04331X0.01181*%
%ADD24R,0.08268X0.08268*%
%ADD25R,0.02756X0.03543*%
%ADD26O,0.06693X0.02362*%
G04:AMPARAMS|DCode=27|XSize=35.43mil|YSize=27.56mil|CornerRadius=0mil|HoleSize=0mil|Usage=FLASHONLY|Rotation=45.000|XOffset=0mil|YOffset=0mil|HoleType=Round|Shape=Rectangle|*
%AMROTATEDRECTD27*
4,1,4,-0.00278,-0.02227,-0.02227,-0.00278,0.00278,0.02227,0.02227,0.00278,-0.00278,-0.02227,0.0*
%
%ADD27ROTATEDRECTD27*%

%ADD28R,0.03543X0.03150*%
%ADD29R,0.03150X0.03543*%
%ADD30R,0.05906X0.10236*%
%ADD31R,0.11221X0.07087*%
%ADD32R,0.03937X0.10630*%
%ADD58C,0.00945*%
%ADD59C,0.00866*%
%ADD60C,0.09843*%
%ADD61C,0.05906*%
%ADD62R,0.05906X0.05906*%
%ADD63C,0.06000*%
%ADD64O,0.05512X0.14961*%
%ADD65R,0.05906X0.05906*%
%ADD66C,0.02756*%
G36*
X280493Y102007D02*
X102007D01*
Y172682D01*
X102507Y172889D01*
X111858Y163538D01*
X112314Y163233D01*
X112852Y163127D01*
X144547D01*
X144958Y162627D01*
X144945Y162563D01*
X145054Y162018D01*
X145347Y161579D01*
X145054Y161140D01*
X144945Y160594D01*
X145054Y160049D01*
X145362Y159587D01*
X145825Y159278D01*
X146370Y159169D01*
X149189D01*
X149555Y159055D01*
X149670Y158689D01*
Y155870D01*
X149778Y155325D01*
X150087Y154862D01*
X150549Y154553D01*
X151094Y154445D01*
X151640Y154553D01*
X152079Y154847D01*
X152518Y154553D01*
X153063Y154445D01*
X153608Y154553D01*
X153962Y154790D01*
X154449Y154464D01*
X154532Y154448D01*
Y157445D01*
X155532D01*
Y154044D01*
X155635Y153959D01*
Y142565D01*
X154535Y141465D01*
X154239Y141022D01*
X154135Y140500D01*
Y135340D01*
X153259Y134464D01*
X152963Y134022D01*
X152860Y133499D01*
Y121760D01*
X152931Y121401D01*
X152652Y121000D01*
X152566Y120933D01*
X151591Y120805D01*
X150641Y120412D01*
X149825Y119785D01*
X149199Y118970D01*
X148805Y118019D01*
X148671Y117000D01*
X148805Y115981D01*
X149199Y115030D01*
X149825Y114215D01*
X150641Y113589D01*
X151591Y113195D01*
X152610Y113061D01*
X153630Y113195D01*
X154580Y113589D01*
X155396Y114215D01*
X156022Y115030D01*
X156415Y115981D01*
X156550Y117000D01*
X156415Y118019D01*
X156199Y118541D01*
X156533Y119041D01*
X165405D01*
X165928Y119145D01*
X166371Y119440D01*
X166666Y119883D01*
X166770Y120405D01*
Y121409D01*
X168280D01*
Y133850D01*
X162531D01*
Y121770D01*
X160406D01*
Y133850D01*
X158865D01*
Y138935D01*
X159934Y140003D01*
X160229Y140446D01*
X160333Y140969D01*
Y141733D01*
X160833Y141884D01*
X160854Y141854D01*
X161609Y141349D01*
X162500Y141172D01*
X163391Y141349D01*
X164146Y141854D01*
X164651Y142609D01*
X164828Y143500D01*
X164710Y144096D01*
X165170Y144343D01*
X165251Y144263D01*
X165706Y143958D01*
X166244Y143851D01*
X172823D01*
Y142819D01*
X172823Y142780D01*
X172728Y142319D01*
X172728Y142315D01*
Y140244D01*
X175500D01*
X178272D01*
Y142315D01*
X178272Y142319D01*
X178177Y142780D01*
X178177Y142819D01*
Y143851D01*
X180823D01*
Y142819D01*
X180823Y142780D01*
X180728Y142319D01*
X180728Y142315D01*
Y140244D01*
X183500D01*
X186272D01*
Y142315D01*
X186272Y142319D01*
X186177Y142780D01*
X186177Y142819D01*
Y147736D01*
X180823D01*
Y146661D01*
X178177D01*
Y147736D01*
X172823D01*
Y146661D01*
X166826D01*
X164311Y149176D01*
Y155769D01*
X164330Y155870D01*
Y158689D01*
X164445Y159055D01*
X164811Y159169D01*
X167630D01*
X167731Y159189D01*
X168824D01*
X169095Y158918D01*
Y153807D01*
X168854Y153646D01*
X168349Y152891D01*
X168172Y152000D01*
X168349Y151109D01*
X168854Y150354D01*
X169609Y149849D01*
X170500Y149672D01*
X171391Y149849D01*
X172146Y150354D01*
X172651Y151109D01*
X172828Y152000D01*
X172651Y152891D01*
X172146Y153646D01*
X171905Y153807D01*
Y159500D01*
X171798Y160038D01*
X171493Y160494D01*
X171291Y160696D01*
X171482Y161158D01*
X185323D01*
Y160169D01*
X190677D01*
Y164736D01*
X185323D01*
Y163968D01*
X169453D01*
X169042Y164468D01*
X169055Y164532D01*
X168947Y165077D01*
X168653Y165516D01*
X168947Y165955D01*
X169055Y166500D01*
X168947Y167045D01*
X168653Y167484D01*
X168947Y167923D01*
X169055Y168468D01*
X168947Y169014D01*
X168653Y169453D01*
X168947Y169892D01*
X169055Y170437D01*
X168947Y170982D01*
X168653Y171421D01*
X168947Y171860D01*
X169055Y172406D01*
X168947Y172951D01*
X168638Y173413D01*
X168175Y173722D01*
X167630Y173830D01*
X164811D01*
X164445Y173945D01*
X164330Y174311D01*
Y177130D01*
X164222Y177675D01*
X163913Y178138D01*
X163451Y178446D01*
X162906Y178555D01*
X162360Y178446D01*
X161921Y178153D01*
X161482Y178446D01*
X160937Y178555D01*
X160392Y178446D01*
X159953Y178153D01*
X159514Y178446D01*
X158968Y178555D01*
X158423Y178446D01*
X157984Y178153D01*
X157545Y178446D01*
X157000Y178555D01*
X156455Y178446D01*
X156016Y178153D01*
X155577Y178446D01*
X155032Y178555D01*
X154486Y178446D01*
X154047Y178153D01*
X153608Y178446D01*
X153063Y178555D01*
X152518Y178446D01*
X152079Y178153D01*
X151640Y178446D01*
X151094Y178555D01*
X150549Y178446D01*
X150087Y178138D01*
X149778Y177675D01*
X149670Y177130D01*
Y174311D01*
X149555Y173945D01*
X149189Y173830D01*
X146370D01*
X145825Y173722D01*
X145362Y173413D01*
X145054Y172951D01*
X144945Y172406D01*
X145054Y171860D01*
X145347Y171421D01*
X145054Y170982D01*
X144945Y170437D01*
X145054Y169892D01*
X145347Y169453D01*
X145054Y169014D01*
X144945Y168468D01*
X144958Y168405D01*
X144547Y167905D01*
X114082D01*
X106393Y175594D01*
Y206084D01*
X106846Y206197D01*
X106893Y206197D01*
X117122D01*
Y220803D01*
X106893D01*
X106846Y220803D01*
X106393Y220916D01*
Y237868D01*
X106893Y237906D01*
X109433Y235366D01*
X110595D01*
Y231500D01*
X110702Y230962D01*
X111006Y230507D01*
X111462Y230202D01*
X112000Y230095D01*
X112538Y230202D01*
X112994Y230507D01*
X113298Y230962D01*
X113405Y231500D01*
Y235366D01*
X114567D01*
X117134Y237933D01*
Y240000D01*
X112000D01*
Y240500D01*
X111500D01*
Y245634D01*
X109433D01*
X106893Y243094D01*
X106393Y243132D01*
Y249745D01*
X106642Y250142D01*
X106893Y250142D01*
X114358D01*
Y257858D01*
X106893D01*
X106642Y257858D01*
X106393Y258255D01*
Y262526D01*
X106893Y262626D01*
X107130Y262054D01*
X107748Y261248D01*
X108554Y260630D01*
X109493Y260241D01*
X110500Y260108D01*
X111507Y260241D01*
X112446Y260630D01*
X113252Y261248D01*
X113870Y262054D01*
X114094Y262595D01*
X119190D01*
Y234177D01*
X118311D01*
Y228823D01*
X122878D01*
Y229500D01*
X124216D01*
Y228823D01*
X128784D01*
Y234177D01*
X127905D01*
Y235918D01*
X136714Y244727D01*
X136980Y244461D01*
X142020D01*
X144539Y246980D01*
Y252020D01*
X142020Y254539D01*
X136980D01*
X134461Y252020D01*
Y246980D01*
X134727Y246714D01*
X128367Y240354D01*
X127905Y240545D01*
Y244692D01*
X128146Y244854D01*
X128651Y245609D01*
X128828Y246500D01*
X128651Y247391D01*
X128146Y248146D01*
X127391Y248651D01*
X126500Y248828D01*
X125609Y248651D01*
X124854Y248146D01*
X124349Y247391D01*
X124172Y246500D01*
X124349Y245609D01*
X124854Y244854D01*
X125095Y244692D01*
Y236500D01*
Y234177D01*
X124216D01*
Y233500D01*
X122878D01*
Y234177D01*
X121999D01*
Y262595D01*
X129000D01*
X129538Y262702D01*
X129993Y263007D01*
X136582Y269595D01*
X139329D01*
X139536Y269095D01*
X137461Y267020D01*
Y261980D01*
X139980Y259461D01*
X145020D01*
X145286Y259727D01*
X146595Y258418D01*
Y247582D01*
X144507Y245493D01*
X144202Y245038D01*
X144095Y244500D01*
Y224582D01*
X143473Y223960D01*
X140154D01*
Y225429D01*
X129878D01*
Y223960D01*
X128055D01*
X127517Y223853D01*
X127062Y223549D01*
X125959Y222446D01*
X125655Y221990D01*
X125548Y221453D01*
Y194677D01*
X124669D01*
Y189323D01*
X129236D01*
Y190595D01*
X133193D01*
X133354Y190354D01*
X134109Y189849D01*
X135000Y189672D01*
X135891Y189849D01*
X136646Y190354D01*
X137151Y191109D01*
X137328Y192000D01*
X137151Y192891D01*
X136646Y193646D01*
X135891Y194151D01*
X135000Y194328D01*
X134109Y194151D01*
X133354Y193646D01*
X133193Y193405D01*
X129236D01*
Y194677D01*
X128358D01*
Y220871D01*
X128637Y221150D01*
X129878D01*
Y219681D01*
X140154D01*
Y221150D01*
X144055D01*
X144593Y221257D01*
X145049Y221562D01*
X146493Y223007D01*
X146798Y223462D01*
X146905Y224000D01*
Y243738D01*
X147142Y243920D01*
X147642Y243673D01*
Y236642D01*
X155358D01*
Y244358D01*
X152905D01*
Y264418D01*
X158849Y270362D01*
X159327Y270217D01*
X159349Y270109D01*
X159854Y269354D01*
X160095Y269193D01*
Y244094D01*
X159554Y243870D01*
X158748Y243252D01*
X158130Y242446D01*
X157741Y241507D01*
X157608Y240500D01*
X157741Y239493D01*
X158130Y238554D01*
X158748Y237748D01*
X159554Y237130D01*
X160493Y236741D01*
X161500Y236608D01*
X162507Y236741D01*
X163446Y237130D01*
X164252Y237748D01*
X164870Y238554D01*
X165259Y239493D01*
X165392Y240500D01*
X165259Y241507D01*
X164870Y242446D01*
X164252Y243252D01*
X163446Y243870D01*
X162905Y244094D01*
Y246507D01*
X163405Y246659D01*
X163506Y246507D01*
X167965Y242048D01*
X167741Y241507D01*
X167608Y240500D01*
X167741Y239493D01*
X168130Y238554D01*
X168748Y237748D01*
X169554Y237130D01*
X170493Y236741D01*
X171500Y236608D01*
X172507Y236741D01*
X173446Y237130D01*
X174252Y237748D01*
X174870Y238554D01*
X175259Y239493D01*
X175382Y240424D01*
X175817Y240696D01*
X177006Y239507D01*
X177462Y239202D01*
X177897Y239116D01*
X178130Y238554D01*
X178748Y237748D01*
X179554Y237130D01*
X180493Y236741D01*
X181500Y236608D01*
X182507Y236741D01*
X183446Y237130D01*
X184252Y237748D01*
X184595Y238196D01*
X185095Y238026D01*
Y226474D01*
X184595Y226304D01*
X184252Y226752D01*
X183446Y227370D01*
X182507Y227759D01*
X181500Y227892D01*
X180493Y227759D01*
X179554Y227370D01*
X178748Y226752D01*
X178130Y225946D01*
X177741Y225007D01*
X177608Y224000D01*
X177741Y222993D01*
X178130Y222054D01*
X178748Y221248D01*
X179554Y220630D01*
X180493Y220241D01*
X181500Y220108D01*
X182507Y220241D01*
X183446Y220630D01*
X184252Y221248D01*
X184595Y221696D01*
X185095Y221526D01*
Y206000D01*
X185202Y205462D01*
X185506Y205007D01*
X192595Y197918D01*
Y197344D01*
X192133Y197153D01*
X189366Y199920D01*
X185580Y196134D01*
X188810Y192904D01*
X189709Y193804D01*
X196507Y187006D01*
X196962Y186702D01*
X197500Y186595D01*
X198287D01*
X198354Y186496D01*
X199044Y186035D01*
X199858Y185872D01*
X204189D01*
X205003Y186035D01*
X205693Y186496D01*
X206154Y187186D01*
X206316Y188000D01*
X206154Y188814D01*
X205693Y189504D01*
X205003Y189965D01*
X204189Y190128D01*
X199858D01*
X199044Y189965D01*
X198354Y189504D01*
X197861Y189626D01*
X196335Y191152D01*
X196470Y191673D01*
X196499Y191695D01*
X197000Y191595D01*
X198287D01*
X198354Y191496D01*
X199044Y191034D01*
X199858Y190873D01*
X204189D01*
X205003Y191034D01*
X205693Y191496D01*
X206154Y192186D01*
X206316Y193000D01*
X206154Y193814D01*
X205693Y194504D01*
X205003Y194966D01*
X204189Y195127D01*
X199858D01*
X199044Y194966D01*
X198354Y194504D01*
X198287Y194405D01*
X197582D01*
X195405Y196582D01*
Y197401D01*
X195905Y197608D01*
X196507Y197006D01*
X196962Y196702D01*
X197500Y196595D01*
X198287D01*
X198354Y196496D01*
X199044Y196035D01*
X199858Y195872D01*
X204189D01*
X205003Y196035D01*
X205693Y196496D01*
X206154Y197186D01*
X206316Y198000D01*
X206154Y198814D01*
X205693Y199504D01*
X205003Y199966D01*
X204189Y200128D01*
X199858D01*
X199044Y199966D01*
X198380Y199522D01*
X198233Y199566D01*
X197905Y199732D01*
Y220142D01*
X205358D01*
Y222595D01*
X212823D01*
Y221622D01*
X218177D01*
Y226189D01*
X212823D01*
Y225405D01*
X205358D01*
Y227858D01*
X197905D01*
Y238026D01*
X198405Y238196D01*
X198748Y237748D01*
X199554Y237130D01*
X200493Y236741D01*
X201500Y236608D01*
X202507Y236741D01*
X203446Y237130D01*
X204252Y237748D01*
X204870Y238554D01*
X205259Y239493D01*
X205392Y240500D01*
X205259Y241507D01*
X204870Y242446D01*
X204252Y243252D01*
X203446Y243870D01*
X202507Y244259D01*
X201500Y244392D01*
X200493Y244259D01*
X199554Y243870D01*
X198748Y243252D01*
X198405Y242804D01*
X197905Y242974D01*
Y252649D01*
X197798Y253187D01*
X197494Y253643D01*
X195704Y255432D01*
X195895Y255894D01*
X229885D01*
X234441Y251338D01*
Y230803D01*
X234548Y230265D01*
X234853Y229809D01*
X250894Y213768D01*
Y204845D01*
X250453Y204609D01*
X250391Y204651D01*
X249500Y204828D01*
X248609Y204651D01*
X247854Y204146D01*
X247349Y203391D01*
X247172Y202500D01*
X247349Y201609D01*
X247854Y200854D01*
X248095Y200693D01*
Y199000D01*
X248202Y198462D01*
X248507Y198006D01*
X249044Y197469D01*
Y194812D01*
X248544Y194661D01*
X248390Y194890D01*
X247635Y195395D01*
X246744Y195572D01*
X245853Y195395D01*
X245098Y194890D01*
X244593Y194135D01*
X244416Y193244D01*
X244593Y192353D01*
X245098Y191598D01*
X245038Y191036D01*
X243406Y189405D01*
X233713D01*
X233646Y189504D01*
X232956Y189965D01*
X232142Y190128D01*
X227811D01*
X226997Y189965D01*
X226307Y189504D01*
X225846Y188814D01*
X225683Y188000D01*
X225846Y187186D01*
X226307Y186496D01*
X226997Y186035D01*
X227811Y185872D01*
X232142D01*
X232956Y186035D01*
X233646Y186496D01*
X233713Y186595D01*
X243988D01*
X244526Y186702D01*
X244982Y187006D01*
X247738Y189762D01*
X248042Y190218D01*
X248149Y190756D01*
Y191437D01*
X248390Y191598D01*
X248544Y191827D01*
X249044Y191676D01*
Y190031D01*
X243418Y184405D01*
X233713D01*
X233646Y184504D01*
X232956Y184966D01*
X232142Y185127D01*
X227811D01*
X226997Y184966D01*
X226307Y184504D01*
X225846Y183814D01*
X225683Y183000D01*
X225846Y182186D01*
X226307Y181496D01*
X226997Y181035D01*
X227811Y180872D01*
X232142D01*
X232956Y181035D01*
X233646Y181496D01*
X233713Y181595D01*
X244000D01*
X244538Y181702D01*
X244993Y182007D01*
X250432Y187445D01*
X250894Y187254D01*
Y167201D01*
X251001Y166663D01*
X251306Y166207D01*
X256007Y161506D01*
X256462Y161202D01*
X257000Y161095D01*
X263642D01*
Y158642D01*
X271358D01*
Y161095D01*
X273418D01*
X275245Y159268D01*
Y149232D01*
X273371Y147358D01*
X271177D01*
Y148236D01*
X265823D01*
Y143669D01*
X271177D01*
Y144548D01*
X273953D01*
X274490Y144655D01*
X274946Y144959D01*
X276633Y146646D01*
X277095Y146455D01*
Y134082D01*
X274824Y131810D01*
X271177D01*
Y132689D01*
X265823D01*
Y128122D01*
X271177D01*
Y129001D01*
X275406D01*
X275943Y129107D01*
X276399Y129412D01*
X279493Y132507D01*
X279798Y132962D01*
X279905Y133500D01*
Y169500D01*
X279798Y170038D01*
X279493Y170493D01*
X276493Y173494D01*
X276038Y173798D01*
X275500Y173905D01*
X271094D01*
X270870Y174446D01*
X270252Y175252D01*
X269446Y175870D01*
X268507Y176259D01*
X267500Y176392D01*
X266493Y176259D01*
X265554Y175870D01*
X264748Y175252D01*
X264130Y174446D01*
X263906Y173905D01*
X261082D01*
X255555Y179432D01*
Y185805D01*
X256016Y185997D01*
X260507Y181507D01*
X260962Y181202D01*
X261500Y181095D01*
X263906D01*
X264130Y180554D01*
X264748Y179748D01*
X265554Y179130D01*
X266493Y178741D01*
X267500Y178608D01*
X268507Y178741D01*
X269446Y179130D01*
X270252Y179748D01*
X270870Y180554D01*
X271259Y181493D01*
X271392Y182500D01*
X271259Y183507D01*
X270870Y184446D01*
X270252Y185252D01*
X269446Y185870D01*
X268507Y186259D01*
X267500Y186392D01*
X266493Y186259D01*
X265554Y185870D01*
X264748Y185252D01*
X264130Y184446D01*
X263906Y183905D01*
X262082D01*
X257405Y188582D01*
Y193455D01*
X257867Y193646D01*
X260007Y191507D01*
X260462Y191202D01*
X261000Y191095D01*
X263906D01*
X264130Y190554D01*
X264748Y189748D01*
X265554Y189130D01*
X266493Y188741D01*
X267500Y188608D01*
X268507Y188741D01*
X269446Y189130D01*
X270252Y189748D01*
X270870Y190554D01*
X271259Y191493D01*
X271392Y192500D01*
X271259Y193507D01*
X270870Y194446D01*
X270252Y195252D01*
X269446Y195870D01*
X268507Y196259D01*
X267500Y196392D01*
X266493Y196259D01*
X265554Y195870D01*
X264748Y195252D01*
X264130Y194446D01*
X263906Y193905D01*
X261582D01*
X259555Y195932D01*
Y207805D01*
X260016Y207997D01*
X263965Y204048D01*
X263741Y203507D01*
X263608Y202500D01*
X263741Y201493D01*
X264130Y200554D01*
X264748Y199748D01*
X265554Y199130D01*
X266493Y198741D01*
X267500Y198608D01*
X268507Y198741D01*
X269446Y199130D01*
X270252Y199748D01*
X270870Y200554D01*
X271259Y201493D01*
X271392Y202500D01*
X271259Y203507D01*
X270870Y204446D01*
X270252Y205252D01*
X269446Y205870D01*
X268507Y206259D01*
X267500Y206392D01*
X266493Y206259D01*
X265952Y206035D01*
X261405Y210582D01*
Y215955D01*
X261867Y216146D01*
X263965Y214048D01*
X263741Y213507D01*
X263608Y212500D01*
X263741Y211493D01*
X264130Y210554D01*
X264748Y209748D01*
X265554Y209130D01*
X266493Y208741D01*
X267500Y208608D01*
X268507Y208741D01*
X269446Y209130D01*
X270252Y209748D01*
X270870Y210554D01*
X271259Y211493D01*
X271392Y212500D01*
X271259Y213507D01*
X270870Y214446D01*
X270252Y215252D01*
X269446Y215870D01*
X268507Y216259D01*
X267500Y216392D01*
X266493Y216259D01*
X265952Y216035D01*
X246503Y235484D01*
Y252356D01*
X246965Y252548D01*
X256507Y243007D01*
X256962Y242702D01*
X257500Y242595D01*
X263906D01*
X264130Y242054D01*
X264748Y241248D01*
X265554Y240630D01*
X266493Y240241D01*
X267500Y240108D01*
X268507Y240241D01*
X269446Y240630D01*
X270252Y241248D01*
X270870Y242054D01*
X271259Y242993D01*
X271392Y244000D01*
X271259Y245007D01*
X270870Y245946D01*
X270252Y246752D01*
X269446Y247370D01*
X268507Y247759D01*
X267500Y247892D01*
X266493Y247759D01*
X265554Y247370D01*
X264748Y246752D01*
X264130Y245946D01*
X263906Y245405D01*
X258082D01*
X248354Y255133D01*
Y258006D01*
X248816Y258197D01*
X254007Y253007D01*
X254462Y252702D01*
X255000Y252595D01*
X263906D01*
X264130Y252054D01*
X264748Y251248D01*
X265554Y250630D01*
X266493Y250241D01*
X267500Y250108D01*
X268507Y250241D01*
X269446Y250630D01*
X270252Y251248D01*
X270870Y252054D01*
X271259Y252993D01*
X271392Y254000D01*
X271259Y255007D01*
X270870Y255946D01*
X270252Y256752D01*
X269446Y257370D01*
X268507Y257759D01*
X267500Y257892D01*
X266493Y257759D01*
X265554Y257370D01*
X264748Y256752D01*
X264130Y255946D01*
X263906Y255405D01*
X255582D01*
X250204Y260783D01*
Y268156D01*
X250666Y268347D01*
X251228Y267785D01*
X251172Y267500D01*
X251349Y266609D01*
X251854Y265854D01*
X252609Y265349D01*
X253500Y265172D01*
X253785Y265228D01*
X256007Y263007D01*
X256462Y262702D01*
X257000Y262595D01*
X263906D01*
X264130Y262054D01*
X264748Y261248D01*
X265554Y260630D01*
X266493Y260241D01*
X267500Y260108D01*
X268507Y260241D01*
X269446Y260630D01*
X270252Y261248D01*
X270870Y262054D01*
X271259Y262993D01*
X271392Y264000D01*
X271259Y265007D01*
X270870Y265946D01*
X270252Y266752D01*
X269446Y267370D01*
X268507Y267759D01*
X267500Y267892D01*
X266493Y267759D01*
X265554Y267370D01*
X264748Y266752D01*
X264130Y265946D01*
X263906Y265405D01*
X257582D01*
X255772Y267215D01*
X255828Y267500D01*
X255651Y268391D01*
X255146Y269146D01*
X254391Y269651D01*
X253500Y269828D01*
X253215Y269772D01*
X252055Y270932D01*
Y275305D01*
X252517Y275497D01*
X255007Y273007D01*
X255462Y272702D01*
X256000Y272595D01*
X263906D01*
X264130Y272054D01*
X264748Y271248D01*
X265554Y270630D01*
X266493Y270241D01*
X267500Y270108D01*
X268507Y270241D01*
X269446Y270630D01*
X270252Y271248D01*
X270870Y272054D01*
X271259Y272993D01*
X271392Y274000D01*
X271259Y275007D01*
X270870Y275946D01*
X270252Y276752D01*
X269446Y277370D01*
X268507Y277759D01*
X267500Y277892D01*
X266493Y277759D01*
X265554Y277370D01*
X264748Y276752D01*
X264130Y275946D01*
X263906Y275405D01*
X256582D01*
X253905Y278082D01*
Y285851D01*
X253798Y286388D01*
X253493Y286844D01*
X243225Y297112D01*
X243164Y297565D01*
X243246Y297759D01*
X251082Y305595D01*
X263642D01*
Y303142D01*
X271358D01*
Y310858D01*
X263642D01*
Y308405D01*
X251928D01*
X251737Y308867D01*
X258465Y315595D01*
X263906D01*
X264130Y315054D01*
X264748Y314248D01*
X265554Y313630D01*
X266493Y313241D01*
X267500Y313108D01*
X268507Y313241D01*
X269446Y313630D01*
X270252Y314248D01*
X270870Y315054D01*
X271259Y315993D01*
X271392Y317000D01*
X271259Y318007D01*
X270870Y318946D01*
X270252Y319752D01*
X269446Y320370D01*
X268507Y320759D01*
X267500Y320892D01*
X266493Y320759D01*
X265554Y320370D01*
X264748Y319752D01*
X264130Y318946D01*
X263906Y318405D01*
X257883D01*
X257346Y318298D01*
X256890Y317993D01*
X251367Y312471D01*
X250905Y312662D01*
Y318918D01*
X257582Y325595D01*
X263906D01*
X264130Y325054D01*
X264748Y324248D01*
X265554Y323630D01*
X266493Y323241D01*
X267500Y323108D01*
X268507Y323241D01*
X269446Y323630D01*
X270252Y324248D01*
X270870Y325054D01*
X271259Y325993D01*
X271392Y327000D01*
X271259Y328007D01*
X270870Y328946D01*
X270252Y329752D01*
X269446Y330370D01*
X268507Y330759D01*
X267500Y330892D01*
X266493Y330759D01*
X265554Y330370D01*
X264748Y329752D01*
X264130Y328946D01*
X263906Y328405D01*
X257000D01*
X256462Y328298D01*
X256007Y327993D01*
X249367Y321354D01*
X248905Y321545D01*
Y329418D01*
X255082Y335595D01*
X263906D01*
X264130Y335054D01*
X264748Y334248D01*
X265554Y333630D01*
X266493Y333241D01*
X267500Y333108D01*
X268507Y333241D01*
X269446Y333630D01*
X270252Y334248D01*
X270870Y335054D01*
X271259Y335993D01*
X271392Y337000D01*
X271259Y338007D01*
X270870Y338946D01*
X270252Y339752D01*
X269446Y340370D01*
X268507Y340759D01*
X267500Y340892D01*
X266493Y340759D01*
X265554Y340370D01*
X264748Y339752D01*
X264130Y338946D01*
X263906Y338405D01*
X254500D01*
X253962Y338298D01*
X253507Y337993D01*
X247516Y332003D01*
X247055Y332195D01*
Y338568D01*
X254082Y345595D01*
X263906D01*
X264130Y345054D01*
X264748Y344248D01*
X265554Y343630D01*
X266493Y343241D01*
X267500Y343108D01*
X268507Y343241D01*
X269446Y343630D01*
X270252Y344248D01*
X270870Y345054D01*
X271259Y345993D01*
X271392Y347000D01*
X271259Y348007D01*
X270870Y348946D01*
X270252Y349752D01*
X269446Y350370D01*
X268507Y350759D01*
X267500Y350892D01*
X266493Y350759D01*
X265554Y350370D01*
X264748Y349752D01*
X264130Y348946D01*
X263906Y348405D01*
X253500D01*
X252962Y348298D01*
X252507Y347993D01*
X245666Y341153D01*
X245204Y341344D01*
Y350217D01*
X250582Y355595D01*
X263906D01*
X264130Y355054D01*
X264748Y354248D01*
X265554Y353630D01*
X266493Y353241D01*
X267500Y353108D01*
X268507Y353241D01*
X269446Y353630D01*
X270252Y354248D01*
X270870Y355054D01*
X271259Y355993D01*
X271392Y357000D01*
X271259Y358007D01*
X270870Y358946D01*
X270252Y359752D01*
X269446Y360370D01*
X268507Y360759D01*
X267500Y360892D01*
X266493Y360759D01*
X265554Y360370D01*
X264748Y359752D01*
X264130Y358946D01*
X263906Y358405D01*
X250000D01*
X249462Y358298D01*
X249007Y357993D01*
X243816Y352803D01*
X243354Y352994D01*
Y362867D01*
X246082Y365595D01*
X263906D01*
X264130Y365054D01*
X264748Y364248D01*
X265554Y363630D01*
X266493Y363241D01*
X267500Y363108D01*
X268507Y363241D01*
X269446Y363630D01*
X270252Y364248D01*
X270870Y365054D01*
X271259Y365993D01*
X271392Y367000D01*
X271259Y368007D01*
X270870Y368946D01*
X270252Y369752D01*
X269446Y370370D01*
X268507Y370759D01*
X267500Y370892D01*
X266493Y370759D01*
X265554Y370370D01*
X264748Y369752D01*
X264130Y368946D01*
X263906Y368405D01*
X245500D01*
X244962Y368298D01*
X244507Y367993D01*
X241965Y365452D01*
X241503Y365644D01*
Y370516D01*
X246582Y375595D01*
X263906D01*
X264130Y375054D01*
X264748Y374248D01*
X265554Y373630D01*
X266493Y373241D01*
X267500Y373108D01*
X268507Y373241D01*
X269446Y373630D01*
X270252Y374248D01*
X270870Y375054D01*
X271259Y375993D01*
X271392Y377000D01*
X271259Y378007D01*
X270870Y378946D01*
X270252Y379752D01*
X269446Y380370D01*
X268507Y380759D01*
X267500Y380892D01*
X266493Y380759D01*
X265554Y380370D01*
X264748Y379752D01*
X264130Y378946D01*
X263906Y378405D01*
X246000D01*
X245462Y378298D01*
X245007Y377993D01*
X239105Y372092D01*
X238800Y371636D01*
X238693Y371098D01*
Y316598D01*
X215043D01*
Y319051D01*
X211073D01*
X210721Y319407D01*
X210755Y322500D01*
X208445D01*
Y323748D01*
X206854D01*
Y324248D01*
X206354D01*
Y327413D01*
X204992D01*
Y324248D01*
X203992D01*
Y327413D01*
X203535D01*
Y344870D01*
X203428Y345408D01*
X203123Y345864D01*
X194905Y354082D01*
Y371837D01*
X195741Y372091D01*
X196753Y372632D01*
X197640Y373360D01*
X198368Y374247D01*
X198909Y375259D01*
X199242Y376358D01*
X199355Y377500D01*
X199242Y378642D01*
X198909Y379741D01*
X198368Y380753D01*
X197640Y381640D01*
X196753Y382368D01*
X195741Y382909D01*
X194642Y383243D01*
X193500Y383355D01*
X192358Y383243D01*
X191259Y382909D01*
X190247Y382368D01*
X189360Y381640D01*
X188632Y380753D01*
X188091Y379741D01*
X187758Y378642D01*
X187645Y377500D01*
X187758Y376358D01*
X188091Y375259D01*
X188632Y374247D01*
X189360Y373360D01*
X190247Y372632D01*
X191259Y372091D01*
X192095Y371837D01*
Y353500D01*
X192202Y352962D01*
X192507Y352507D01*
X200725Y344288D01*
Y327413D01*
X200268D01*
Y324248D01*
X199268D01*
Y327413D01*
X197906D01*
Y324248D01*
X196906D01*
Y327413D01*
X196448D01*
Y330457D01*
X196341Y330994D01*
X196037Y331450D01*
X191905Y335582D01*
Y339193D01*
X192146Y339354D01*
X192651Y340109D01*
X192828Y341000D01*
X192651Y341891D01*
X192146Y342646D01*
X191391Y343151D01*
X190500Y343328D01*
X189609Y343151D01*
X188854Y342646D01*
X188349Y341891D01*
X188172Y341000D01*
X188349Y340109D01*
X188854Y339354D01*
X189095Y339193D01*
Y335000D01*
X189202Y334462D01*
X189506Y334007D01*
X193638Y329875D01*
Y327413D01*
X193181D01*
Y324248D01*
X192181D01*
Y327413D01*
X191091D01*
Y327319D01*
X189547D01*
Y327413D01*
X188457D01*
Y324248D01*
X187457D01*
Y327413D01*
X186366D01*
Y327319D01*
X184823D01*
Y327413D01*
X183732D01*
Y324248D01*
X182732D01*
Y327413D01*
X181642D01*
Y327319D01*
X179913D01*
Y330492D01*
X179806Y331030D01*
X179501Y331486D01*
X179045Y331790D01*
X178508Y331897D01*
X176590D01*
X173905Y334582D01*
Y335764D01*
X175177D01*
Y340331D01*
X169823D01*
Y335764D01*
X171095D01*
Y334000D01*
X171202Y333462D01*
X171507Y333007D01*
X172292Y332221D01*
X172100Y331759D01*
X162854D01*
X162317Y331652D01*
X161861Y331348D01*
X159785Y329272D01*
X159500Y329328D01*
X158609Y329151D01*
X157854Y328646D01*
X157349Y327891D01*
X157195Y327116D01*
X156725Y326879D01*
X147713Y335890D01*
Y338726D01*
X151535Y342548D01*
X169823D01*
Y341669D01*
X175177D01*
Y346236D01*
X173905D01*
Y349716D01*
X175177D01*
Y354283D01*
X169823D01*
Y349716D01*
X171095D01*
Y346236D01*
X169823D01*
Y345358D01*
X150953D01*
X150415Y345251D01*
X149959Y344946D01*
X145315Y340302D01*
X145010Y339846D01*
X144904Y339308D01*
Y336737D01*
X144441Y336545D01*
X124994Y355993D01*
X124538Y356298D01*
X124000Y356405D01*
X114094D01*
X113870Y356946D01*
X113252Y357752D01*
X112446Y358370D01*
X111507Y358759D01*
X110500Y358892D01*
X109493Y358759D01*
X108554Y358370D01*
X107748Y357752D01*
X107130Y356946D01*
X106741Y356007D01*
X106608Y355000D01*
X106741Y353993D01*
X107130Y353054D01*
X107748Y352248D01*
X108554Y351630D01*
X109493Y351241D01*
X110500Y351108D01*
X111507Y351241D01*
X112446Y351630D01*
X113252Y352248D01*
X113870Y353054D01*
X114094Y353595D01*
X123418D01*
X130146Y346867D01*
X129955Y346405D01*
X114094D01*
X113870Y346946D01*
X113252Y347752D01*
X112446Y348370D01*
X111507Y348759D01*
X110500Y348892D01*
X109493Y348759D01*
X108554Y348370D01*
X107748Y347752D01*
X107130Y346946D01*
X106906Y346405D01*
X105500D01*
X104962Y346298D01*
X104507Y345993D01*
X102507Y343994D01*
X102007Y344201D01*
Y395493D01*
X280493D01*
Y102007D01*
D02*
G37*
G36*
X137529Y336867D02*
X137338Y336405D01*
X114094D01*
X113870Y336946D01*
X113252Y337752D01*
X112446Y338370D01*
X111507Y338759D01*
X110500Y338892D01*
X109493Y338759D01*
X108554Y338370D01*
X107748Y337752D01*
X107130Y336946D01*
X106741Y336007D01*
X106608Y335000D01*
X106741Y333993D01*
X106965Y333452D01*
X105005Y331492D01*
X104543Y331683D01*
Y342056D01*
X106082Y343595D01*
X106906D01*
X107130Y343054D01*
X107748Y342248D01*
X108554Y341630D01*
X109493Y341241D01*
X110500Y341108D01*
X111507Y341241D01*
X112446Y341630D01*
X113252Y342248D01*
X113870Y343054D01*
X114094Y343595D01*
X130801D01*
X137529Y336867D01*
D02*
G37*
G36*
X144913Y326867D02*
X144721Y326405D01*
X114094D01*
X113870Y326946D01*
X113252Y327752D01*
X112446Y328370D01*
X111507Y328759D01*
X110500Y328892D01*
X109493Y328759D01*
X108554Y328370D01*
X107748Y327752D01*
X107130Y326946D01*
X106893Y326374D01*
X106393Y326474D01*
Y328906D01*
X108952Y331465D01*
X109493Y331241D01*
X110500Y331108D01*
X111507Y331241D01*
X112446Y331630D01*
X113252Y332248D01*
X113870Y333054D01*
X114094Y333595D01*
X138184D01*
X144913Y326867D01*
D02*
G37*
G36*
X174741Y327319D02*
X174650D01*
Y322500D01*
X172500D01*
Y319051D01*
X167957D01*
Y318960D01*
X165889D01*
X165717Y319460D01*
X166151Y320109D01*
X166328Y321000D01*
X166151Y321891D01*
X165646Y322646D01*
X164891Y323151D01*
X164000Y323328D01*
X163109Y323151D01*
X162354Y322646D01*
X162192Y322405D01*
X161199D01*
X159379Y324225D01*
X159616Y324695D01*
X160391Y324849D01*
X161146Y325354D01*
X161651Y326109D01*
X161828Y327000D01*
X161772Y327285D01*
X163436Y328949D01*
X174741D01*
Y327319D01*
D02*
G37*
G36*
X107130Y323054D02*
X107748Y322248D01*
X108554Y321630D01*
X109493Y321241D01*
X110500Y321108D01*
X111507Y321241D01*
X112446Y321630D01*
X113252Y322248D01*
X113870Y323054D01*
X114094Y323595D01*
X145568D01*
X152296Y316867D01*
X152104Y316405D01*
X114094D01*
X113870Y316946D01*
X113252Y317752D01*
X112446Y318370D01*
X111507Y318759D01*
X110500Y318892D01*
X109493Y318759D01*
X108554Y318370D01*
X107748Y317752D01*
X107130Y316946D01*
X106893Y316374D01*
X106393Y316474D01*
Y323526D01*
X106893Y323626D01*
X107130Y323054D01*
D02*
G37*
G36*
Y313054D02*
X107748Y312248D01*
X108554Y311630D01*
X109493Y311241D01*
X110500Y311108D01*
X111507Y311241D01*
X112446Y311630D01*
X113252Y312248D01*
X113870Y313054D01*
X114094Y313595D01*
X142942D01*
X142986Y313479D01*
X143025Y313095D01*
X142354Y312646D01*
X141849Y311891D01*
X141672Y311000D01*
X141849Y310109D01*
X142246Y309515D01*
X141900Y309160D01*
X141887Y309152D01*
X141000Y309328D01*
X140109Y309151D01*
X139354Y308646D01*
X138849Y307891D01*
X138672Y307000D01*
X138849Y306109D01*
X139354Y305354D01*
X140109Y304849D01*
X141000Y304672D01*
X141891Y304849D01*
X142100Y304989D01*
X153291D01*
X156953Y301326D01*
X156808Y300848D01*
X156609Y300808D01*
X155854Y300304D01*
X155349Y299548D01*
X155172Y298657D01*
X155349Y297766D01*
X155854Y297011D01*
X156202Y296779D01*
X156096Y296248D01*
X155609Y296151D01*
X154854Y295646D01*
X154349Y294891D01*
X154172Y294000D01*
X154316Y293275D01*
X154043Y292889D01*
X153943Y292817D01*
X153109Y292651D01*
X152354Y292146D01*
X151849Y291391D01*
X151672Y290500D01*
X151837Y289672D01*
X151688Y289433D01*
X151502Y289228D01*
X151000Y289328D01*
X150109Y289151D01*
X149354Y288646D01*
X148849Y287891D01*
X148672Y287000D01*
X148849Y286109D01*
X149320Y285405D01*
X149194Y284905D01*
X138500D01*
X137962Y284798D01*
X137506Y284493D01*
X133750Y280737D01*
X130905Y283582D01*
Y286764D01*
X132177D01*
Y291331D01*
X126823D01*
Y286764D01*
X128095D01*
Y283000D01*
X128202Y282462D01*
X128507Y282007D01*
X131763Y278750D01*
X128418Y275405D01*
X114094D01*
X113870Y275946D01*
X113252Y276752D01*
X112446Y277370D01*
X111507Y277759D01*
X110500Y277892D01*
X109493Y277759D01*
X108554Y277370D01*
X107748Y276752D01*
X107130Y275946D01*
X106893Y275374D01*
X106393Y275474D01*
Y282279D01*
X106893Y282379D01*
X107047Y282007D01*
X107681Y281181D01*
X108507Y280547D01*
X109468Y280149D01*
X110000Y280079D01*
Y284000D01*
Y287921D01*
X109468Y287851D01*
X108507Y287453D01*
X107681Y286819D01*
X107047Y285993D01*
X106893Y285621D01*
X106393Y285721D01*
Y300745D01*
X106642Y301142D01*
X106893Y301142D01*
X114358D01*
Y303595D01*
X126418D01*
X128095Y301918D01*
Y297236D01*
X126823D01*
Y292669D01*
X132177D01*
Y297236D01*
X130905D01*
Y302500D01*
X130798Y303038D01*
X130493Y303493D01*
X127994Y305993D01*
X127538Y306298D01*
X127000Y306405D01*
X114358D01*
Y308858D01*
X106893D01*
X106642Y308858D01*
X106393Y309255D01*
Y313526D01*
X106893Y313626D01*
X107130Y313054D01*
D02*
G37*
G36*
X212472Y280532D02*
X215138D01*
Y280717D01*
X234296D01*
X234646Y280367D01*
X234455Y279905D01*
X232256D01*
X231718Y279798D01*
X231262Y279493D01*
X229541Y277772D01*
X229256D01*
Y275500D01*
X231331D01*
Y275588D01*
X232838Y277095D01*
X237095D01*
Y273582D01*
X235268Y271755D01*
X231396D01*
X231331Y272228D01*
X231331D01*
Y274500D01*
X228756D01*
Y275000D01*
X228256D01*
Y277772D01*
X226185D01*
X226181Y277772D01*
X225720Y277677D01*
X225681Y277677D01*
X220764D01*
Y276405D01*
X219307D01*
X219146Y276646D01*
X218391Y277151D01*
X217500Y277328D01*
X216609Y277151D01*
X215854Y276646D01*
X215349Y275891D01*
X215172Y275000D01*
X215349Y274109D01*
X215854Y273354D01*
X216609Y272849D01*
X217500Y272672D01*
X218391Y272849D01*
X219146Y273354D01*
X219307Y273595D01*
X220764D01*
Y272323D01*
X225562Y272323D01*
X226019Y271954D01*
X225999Y271755D01*
X208848D01*
X208715Y271889D01*
X208445Y272264D01*
X208445D01*
X208445Y272264D01*
Y274929D01*
X206854D01*
Y275929D01*
X208445D01*
Y277500D01*
X210256D01*
X210289Y280532D01*
X211472D01*
Y282122D01*
X212472D01*
Y280532D01*
D02*
G37*
G36*
X155608Y281595D02*
X146579Y272566D01*
X146363Y272597D01*
X146186Y273127D01*
X147539Y274480D01*
Y279520D01*
X145464Y281595D01*
X145671Y282095D01*
X155401D01*
X155608Y281595D01*
D02*
G37*
G36*
X139085Y281852D02*
X139257Y281316D01*
X137461Y279520D01*
Y277947D01*
X129918Y270405D01*
X127307D01*
X127146Y270646D01*
X126391Y271151D01*
X125500Y271328D01*
X124609Y271151D01*
X123854Y270646D01*
X123349Y269891D01*
X123172Y269000D01*
X123349Y268109D01*
X123854Y267354D01*
X124609Y266849D01*
X125500Y266672D01*
X126391Y266849D01*
X127146Y267354D01*
X127307Y267595D01*
X129901D01*
X130108Y267095D01*
X128418Y265405D01*
X114094D01*
X113870Y265946D01*
X113252Y266752D01*
X112446Y267370D01*
X111507Y267759D01*
X110500Y267892D01*
X109493Y267759D01*
X108554Y267370D01*
X107748Y266752D01*
X107130Y265946D01*
X106893Y265374D01*
X106393Y265474D01*
Y272526D01*
X106893Y272626D01*
X107130Y272054D01*
X107748Y271248D01*
X108554Y270630D01*
X109493Y270241D01*
X110500Y270108D01*
X111507Y270241D01*
X112446Y270630D01*
X113252Y271248D01*
X113870Y272054D01*
X114094Y272595D01*
X129000D01*
X129538Y272702D01*
X129993Y273007D01*
X134743Y277757D01*
X138874Y281887D01*
X139085Y281852D01*
D02*
G37*
G36*
X167957Y280626D02*
X172500D01*
Y277500D01*
X174650D01*
Y272358D01*
X176917D01*
Y272264D01*
X178008D01*
Y275429D01*
X179008D01*
Y272264D01*
X180370D01*
Y275429D01*
X181370D01*
Y272264D01*
X181827D01*
Y266461D01*
X181477Y266212D01*
X181327Y266164D01*
X180500Y266328D01*
X179609Y266151D01*
X178854Y265646D01*
X178349Y264891D01*
X178172Y264000D01*
X178349Y263109D01*
X178854Y262354D01*
X179609Y261849D01*
X180082Y261755D01*
Y261245D01*
X179609Y261151D01*
X178854Y260646D01*
X178349Y259891D01*
X178172Y259000D01*
X178349Y258109D01*
X178854Y257354D01*
X179095Y257192D01*
Y251000D01*
X179202Y250462D01*
X179507Y250007D01*
X185095Y244418D01*
Y242974D01*
X184595Y242804D01*
X184252Y243252D01*
X183446Y243870D01*
X182507Y244259D01*
X181500Y244392D01*
X180493Y244259D01*
X179554Y243870D01*
X178748Y243252D01*
X178398Y242796D01*
X177735Y242752D01*
X168905Y251582D01*
Y269397D01*
X168798Y269935D01*
X168493Y270391D01*
X166405Y272479D01*
Y275693D01*
X166646Y275854D01*
X167151Y276609D01*
X167328Y277500D01*
X167151Y278391D01*
X166646Y279146D01*
X165891Y279651D01*
X165000Y279828D01*
X164404Y279710D01*
X164157Y280170D01*
X164704Y280717D01*
X167957D01*
Y280626D01*
D02*
G37*
G36*
X241843Y281418D02*
Y265797D01*
X241381Y265606D01*
X237493Y269493D01*
X237546Y270059D01*
X239493Y272007D01*
X239798Y272462D01*
X239905Y273000D01*
Y278500D01*
X239798Y279038D01*
X239493Y279493D01*
X236369Y282617D01*
X236561Y283079D01*
X240182D01*
X241843Y281418D01*
D02*
G37*
G36*
X200725Y266894D02*
X200354Y266646D01*
X199849Y265891D01*
X199672Y265000D01*
X199849Y264109D01*
X200354Y263354D01*
X201025Y262905D01*
X200986Y262521D01*
X200942Y262405D01*
X196582D01*
X191724Y267263D01*
Y272358D01*
X200725D01*
Y266894D01*
D02*
G37*
G36*
X235228Y262285D02*
X235172Y262000D01*
X235349Y261109D01*
X235854Y260354D01*
X236609Y259849D01*
X237500Y259672D01*
X238391Y259849D01*
X239146Y260354D01*
X239493Y260872D01*
X239993Y260720D01*
Y255647D01*
X239531Y255456D01*
X232993Y261993D01*
X232538Y262298D01*
X232000Y262405D01*
X226236D01*
Y263595D01*
X233918D01*
X235228Y262285D01*
D02*
G37*
G36*
X151790Y273096D02*
X151672Y272500D01*
X151849Y271609D01*
X152354Y270854D01*
X153109Y270349D01*
X153981Y270176D01*
X154114Y269980D01*
X154246Y269733D01*
X150506Y265993D01*
X150202Y265538D01*
X150095Y265000D01*
Y244358D01*
X148052D01*
X147845Y244858D01*
X148994Y246007D01*
X149298Y246462D01*
X149405Y247000D01*
Y259000D01*
X149298Y259538D01*
X148994Y259993D01*
X147273Y261714D01*
X147539Y261980D01*
Y267020D01*
X145464Y269095D01*
X145671Y269595D01*
X147000D01*
X147538Y269702D01*
X147994Y270007D01*
X151330Y273343D01*
X151790Y273096D01*
D02*
G37*
G36*
X190095Y252418D02*
Y244094D01*
X189554Y243870D01*
X188748Y243252D01*
X188405Y242804D01*
X187905Y242974D01*
Y245000D01*
X187798Y245538D01*
X187494Y245993D01*
X181905Y251582D01*
Y257192D01*
X182146Y257354D01*
X182651Y258109D01*
X182825Y258981D01*
X183020Y259114D01*
X183267Y259246D01*
X190095Y252418D01*
D02*
G37*
G36*
X188748Y237748D02*
X189554Y237130D01*
X190493Y236741D01*
X191500Y236608D01*
X192507Y236741D01*
X193446Y237130D01*
X194252Y237748D01*
X194595Y238196D01*
X195095Y238026D01*
Y226474D01*
X194595Y226304D01*
X194252Y226752D01*
X193446Y227370D01*
X192507Y227759D01*
X191500Y227892D01*
X190493Y227759D01*
X189554Y227370D01*
X188748Y226752D01*
X188405Y226304D01*
X187905Y226474D01*
Y238026D01*
X188405Y238196D01*
X188748Y237748D01*
D02*
G37*
G36*
Y221248D02*
X189554Y220630D01*
X190493Y220241D01*
X191500Y220108D01*
X192507Y220241D01*
X193446Y220630D01*
X194252Y221248D01*
X194595Y221696D01*
X195095Y221526D01*
Y200099D01*
X194595Y199892D01*
X187905Y206582D01*
Y221526D01*
X188405Y221696D01*
X188748Y221248D01*
D02*
G37*
G36*
X259507Y171507D02*
X259962Y171202D01*
X260500Y171095D01*
X263906D01*
X264130Y170554D01*
X264748Y169748D01*
X265554Y169130D01*
X266493Y168741D01*
X267500Y168608D01*
X268507Y168741D01*
X269446Y169130D01*
X270252Y169748D01*
X270870Y170554D01*
X271094Y171095D01*
X274918D01*
X277095Y168918D01*
Y162045D01*
X276633Y161854D01*
X274993Y163494D01*
X274538Y163798D01*
X274000Y163905D01*
X271358D01*
Y166358D01*
X263642D01*
Y163905D01*
X257582D01*
X253704Y167783D01*
Y176656D01*
X254166Y176847D01*
X259507Y171507D01*
D02*
G37*
%LPC*%
G36*
X184158Y393243D02*
Y387842D01*
X189558D01*
X189493Y388503D01*
X189155Y389619D01*
X188605Y390648D01*
X187865Y391550D01*
X186963Y392290D01*
X185934Y392840D01*
X184818Y393178D01*
X184158Y393243D01*
D02*
G37*
G36*
X203842D02*
Y387842D01*
X209243D01*
X209178Y388503D01*
X208840Y389619D01*
X208290Y390648D01*
X207550Y391550D01*
X206648Y392290D01*
X205620Y392840D01*
X204503Y393178D01*
X203842Y393243D01*
D02*
G37*
G36*
X183158D02*
X182497Y393178D01*
X181380Y392840D01*
X180352Y392290D01*
X179450Y391550D01*
X178710Y390648D01*
X178161Y389619D01*
X177822Y388503D01*
X177757Y387842D01*
X183158D01*
Y393243D01*
D02*
G37*
G36*
X202842D02*
X202182Y393178D01*
X201066Y392840D01*
X200037Y392290D01*
X199135Y391550D01*
X198395Y390648D01*
X197845Y389619D01*
X197507Y388503D01*
X197442Y387842D01*
X202842D01*
Y393243D01*
D02*
G37*
G36*
X209243Y386842D02*
X203842D01*
Y381442D01*
X204503Y381507D01*
X205620Y381845D01*
X206648Y382395D01*
X207550Y383135D01*
X208290Y384037D01*
X208840Y385066D01*
X209178Y386182D01*
X209243Y386842D01*
D02*
G37*
G36*
X189558D02*
X184158D01*
Y381442D01*
X184818Y381507D01*
X185934Y381845D01*
X186963Y382395D01*
X187865Y383135D01*
X188605Y384037D01*
X189155Y385066D01*
X189493Y386182D01*
X189558Y386842D01*
D02*
G37*
G36*
X202842D02*
X197442D01*
X197507Y386182D01*
X197845Y385066D01*
X198395Y384037D01*
X199135Y383135D01*
X200037Y382395D01*
X201066Y381845D01*
X202182Y381507D01*
X202842Y381442D01*
Y386842D01*
D02*
G37*
G36*
X183158D02*
X177757D01*
X177822Y386182D01*
X178161Y385066D01*
X178710Y384037D01*
X179450Y383135D01*
X180352Y382395D01*
X181380Y381845D01*
X182497Y381507D01*
X183158Y381442D01*
Y386842D01*
D02*
G37*
G36*
X184158Y373558D02*
Y368158D01*
X189558D01*
X189493Y368818D01*
X189155Y369934D01*
X188605Y370963D01*
X187865Y371865D01*
X186963Y372605D01*
X185934Y373154D01*
X184818Y373493D01*
X184158Y373558D01*
D02*
G37*
G36*
X203842D02*
Y368158D01*
X209243D01*
X209178Y368818D01*
X208840Y369934D01*
X208290Y370963D01*
X207550Y371865D01*
X206648Y372605D01*
X205620Y373154D01*
X204503Y373493D01*
X203842Y373558D01*
D02*
G37*
G36*
X183158D02*
X182497Y373493D01*
X181380Y373154D01*
X180352Y372605D01*
X179450Y371865D01*
X178710Y370963D01*
X178161Y369934D01*
X177822Y368818D01*
X177757Y368158D01*
X183158D01*
Y373558D01*
D02*
G37*
G36*
X202842D02*
X202182Y373493D01*
X201066Y373154D01*
X200037Y372605D01*
X199135Y371865D01*
X198395Y370963D01*
X197845Y369934D01*
X197507Y368818D01*
X197442Y368158D01*
X202842D01*
Y373558D01*
D02*
G37*
G36*
X111000Y368921D02*
Y365500D01*
X114421D01*
X114351Y366032D01*
X113953Y366993D01*
X113319Y367819D01*
X112493Y368453D01*
X111532Y368851D01*
X111000Y368921D01*
D02*
G37*
G36*
X110000D02*
X109468Y368851D01*
X108507Y368453D01*
X107681Y367819D01*
X107047Y366993D01*
X106649Y366032D01*
X106579Y365500D01*
X110000D01*
Y368921D01*
D02*
G37*
G36*
X209243Y367158D02*
X203842D01*
Y361757D01*
X204503Y361822D01*
X205620Y362160D01*
X206648Y362710D01*
X207550Y363450D01*
X208290Y364352D01*
X208840Y365381D01*
X209178Y366497D01*
X209243Y367158D01*
D02*
G37*
G36*
X189558D02*
X184158D01*
Y361757D01*
X184818Y361822D01*
X185934Y362160D01*
X186963Y362710D01*
X187865Y363450D01*
X188605Y364352D01*
X189155Y365381D01*
X189493Y366497D01*
X189558Y367158D01*
D02*
G37*
G36*
X202842D02*
X197442D01*
X197507Y366497D01*
X197845Y365381D01*
X198395Y364352D01*
X199135Y363450D01*
X200037Y362710D01*
X201066Y362160D01*
X202182Y361822D01*
X202842Y361757D01*
Y367158D01*
D02*
G37*
G36*
X183158D02*
X177757D01*
X177822Y366497D01*
X178161Y365381D01*
X178710Y364352D01*
X179450Y363450D01*
X180352Y362710D01*
X181380Y362160D01*
X182497Y361822D01*
X183158Y361757D01*
Y367158D01*
D02*
G37*
G36*
X114421Y364500D02*
X111000D01*
Y361079D01*
X111532Y361149D01*
X112493Y361547D01*
X113319Y362181D01*
X113953Y363007D01*
X114351Y363968D01*
X114421Y364500D01*
D02*
G37*
G36*
X110000D02*
X106579D01*
X106649Y363968D01*
X107047Y363007D01*
X107681Y362181D01*
X108507Y361547D01*
X109468Y361149D01*
X110000Y361079D01*
Y364500D01*
D02*
G37*
G36*
X175272Y360283D02*
X173000D01*
Y358405D01*
X175272D01*
Y360283D01*
D02*
G37*
G36*
X172000D02*
X169728D01*
Y358405D01*
X172000D01*
Y360283D01*
D02*
G37*
G36*
X175272Y357405D02*
X173000D01*
Y355528D01*
X175272D01*
Y357405D01*
D02*
G37*
G36*
X172000D02*
X169728D01*
Y355528D01*
X172000D01*
Y357405D01*
D02*
G37*
G36*
X208445Y327413D02*
X207354D01*
Y324748D01*
X208445D01*
Y327413D01*
D02*
G37*
G36*
X268000Y287921D02*
Y284500D01*
X271421D01*
X271351Y285032D01*
X270953Y285993D01*
X270319Y286819D01*
X269493Y287453D01*
X268532Y287851D01*
X268000Y287921D01*
D02*
G37*
G36*
X267000D02*
X266468Y287851D01*
X265507Y287453D01*
X264681Y286819D01*
X264047Y285993D01*
X263649Y285032D01*
X263579Y284500D01*
X267000D01*
Y287921D01*
D02*
G37*
G36*
X271421Y283500D02*
X268000D01*
Y280079D01*
X268532Y280149D01*
X269493Y280547D01*
X270319Y281181D01*
X270953Y282007D01*
X271351Y282968D01*
X271421Y283500D01*
D02*
G37*
G36*
X267000D02*
X263579D01*
X263649Y282968D01*
X264047Y282007D01*
X264681Y281181D01*
X265507Y280547D01*
X266468Y280149D01*
X267000Y280079D01*
Y283500D01*
D02*
G37*
G36*
X114567Y245634D02*
X112500D01*
Y241000D01*
X117134D01*
Y243067D01*
X114567Y245634D01*
D02*
G37*
G36*
X271358Y237858D02*
X263642D01*
Y230142D01*
X271358D01*
Y237858D01*
D02*
G37*
G36*
X211500Y244392D02*
X210493Y244259D01*
X209554Y243870D01*
X208748Y243252D01*
X208130Y242446D01*
X207741Y241507D01*
X207608Y240500D01*
X207741Y239493D01*
X208130Y238554D01*
X208748Y237748D01*
X209554Y237130D01*
X210493Y236741D01*
X211500Y236608D01*
X212507Y236741D01*
X213446Y237130D01*
X214252Y237748D01*
X214870Y238554D01*
X215094Y239095D01*
X221418D01*
X228728Y231785D01*
X228672Y231500D01*
X228849Y230609D01*
X229354Y229854D01*
X230109Y229349D01*
X231000Y229172D01*
X231891Y229349D01*
X232646Y229854D01*
X233151Y230609D01*
X233328Y231500D01*
X233151Y232391D01*
X232646Y233146D01*
X231891Y233651D01*
X231000Y233828D01*
X230715Y233772D01*
X222993Y241493D01*
X222538Y241798D01*
X222000Y241905D01*
X215094D01*
X214870Y242446D01*
X214252Y243252D01*
X213446Y243870D01*
X212507Y244259D01*
X211500Y244392D01*
D02*
G37*
G36*
X162000Y227921D02*
Y224500D01*
X165421D01*
X165351Y225032D01*
X164953Y225993D01*
X164319Y226819D01*
X163493Y227453D01*
X162532Y227851D01*
X162000Y227921D01*
D02*
G37*
G36*
X161000D02*
X160468Y227851D01*
X159507Y227453D01*
X158681Y226819D01*
X158047Y225993D01*
X157649Y225032D01*
X157579Y224500D01*
X161000D01*
Y227921D01*
D02*
G37*
G36*
X171500Y227892D02*
X170493Y227759D01*
X169554Y227370D01*
X168748Y226752D01*
X168130Y225946D01*
X167741Y225007D01*
X167608Y224000D01*
X167741Y222993D01*
X168130Y222054D01*
X168748Y221248D01*
X169554Y220630D01*
X170493Y220241D01*
X171500Y220108D01*
X172507Y220241D01*
X173446Y220630D01*
X174252Y221248D01*
X174870Y222054D01*
X175259Y222993D01*
X175392Y224000D01*
X175259Y225007D01*
X174870Y225946D01*
X174252Y226752D01*
X173446Y227370D01*
X172507Y227759D01*
X171500Y227892D01*
D02*
G37*
G36*
X165421Y223500D02*
X162000D01*
Y220079D01*
X162532Y220149D01*
X163493Y220547D01*
X164319Y221181D01*
X164953Y222007D01*
X165351Y222968D01*
X165421Y223500D01*
D02*
G37*
G36*
X161000D02*
X157579D01*
X157649Y222968D01*
X158047Y222007D01*
X158681Y221181D01*
X159507Y220547D01*
X160468Y220149D01*
X161000Y220079D01*
Y223500D01*
D02*
G37*
G36*
X140248Y207413D02*
X135516D01*
Y204945D01*
X140248D01*
Y207413D01*
D02*
G37*
G36*
X134516D02*
X129783D01*
Y204945D01*
X134516D01*
Y207413D01*
D02*
G37*
G36*
X140248Y203945D02*
X135516D01*
Y201476D01*
X140248D01*
Y203945D01*
D02*
G37*
G36*
X134516D02*
X129783D01*
Y201476D01*
X134516D01*
Y203945D01*
D02*
G37*
G36*
X140154Y216374D02*
X129878D01*
Y210626D01*
X140154D01*
Y212095D01*
X171418D01*
X176228Y207285D01*
X176172Y207000D01*
X176228Y206715D01*
X169507Y199994D01*
X169202Y199538D01*
X169095Y199000D01*
Y191000D01*
X169202Y190462D01*
X169507Y190006D01*
X195095Y164418D01*
Y153000D01*
X195202Y152462D01*
X195507Y152006D01*
X199506Y148006D01*
X199962Y147702D01*
X200500Y147595D01*
X228418D01*
X230595Y145418D01*
Y140582D01*
X229418Y139405D01*
X227016D01*
Y142449D01*
X214185D01*
X213724Y142543D01*
X213523Y142543D01*
X207614D01*
Y138000D01*
Y133457D01*
X213523D01*
X213724Y133457D01*
X214185Y133551D01*
X218595D01*
Y121992D01*
X217323D01*
Y117075D01*
X217323Y117036D01*
X217228Y116575D01*
X217228Y116571D01*
Y114500D01*
X220000D01*
X222772D01*
Y116571D01*
X222772Y116575D01*
X222677Y117036D01*
X222677Y117075D01*
Y118095D01*
X223823D01*
Y117063D01*
X223823Y117024D01*
X223728Y116563D01*
X223728Y116559D01*
Y114488D01*
X226500D01*
X229272D01*
Y116559D01*
X229272Y116563D01*
X229177Y117024D01*
X229177Y117063D01*
Y121980D01*
X223823D01*
Y120905D01*
X222677D01*
Y121992D01*
X221405D01*
Y133551D01*
X227016D01*
Y136595D01*
X230000D01*
X230538Y136702D01*
X230993Y137006D01*
X232993Y139006D01*
X233298Y139462D01*
X233405Y140000D01*
Y146000D01*
X233298Y146538D01*
X232993Y146994D01*
X229993Y149994D01*
X229538Y150298D01*
X229000Y150405D01*
X201082D01*
X197905Y153582D01*
Y165000D01*
X197798Y165538D01*
X197494Y165993D01*
X171905Y191582D01*
Y198418D01*
X178215Y204728D01*
X178500Y204672D01*
X178785Y204728D01*
X182304Y201209D01*
X181404Y200309D01*
X184634Y197080D01*
X188420Y200866D01*
X185190Y204096D01*
X184291Y203196D01*
X180772Y206715D01*
X180828Y207000D01*
X180651Y207891D01*
X180146Y208646D01*
X179391Y209151D01*
X178500Y209328D01*
X178215Y209272D01*
X172994Y214493D01*
X172538Y214798D01*
X172000Y214905D01*
X140154D01*
Y216374D01*
D02*
G37*
G36*
X218177Y220284D02*
X212823D01*
Y215717D01*
X214095D01*
Y198000D01*
Y195000D01*
X214202Y194462D01*
X214507Y194007D01*
X216507Y192007D01*
X216962Y191702D01*
X217500Y191595D01*
X226240D01*
X226307Y191496D01*
X226997Y191034D01*
X227811Y190873D01*
X232142D01*
X232956Y191034D01*
X233646Y191496D01*
X234107Y192186D01*
X234269Y193000D01*
X234107Y193814D01*
X233646Y194504D01*
X232956Y194966D01*
X232142Y195127D01*
X227811D01*
X226997Y194966D01*
X226307Y194504D01*
X226240Y194405D01*
X218082D01*
X216905Y195582D01*
Y196595D01*
X226240D01*
X226307Y196496D01*
X226997Y196035D01*
X227811Y195872D01*
X232142D01*
X232956Y196035D01*
X233646Y196496D01*
X234107Y197186D01*
X234269Y198000D01*
X234107Y198814D01*
X233646Y199504D01*
X232956Y199966D01*
X232142Y200128D01*
X227811D01*
X226997Y199966D01*
X226307Y199504D01*
X226240Y199405D01*
X216905D01*
Y215717D01*
X218177D01*
Y220284D01*
D02*
G37*
G36*
X204189Y185224D02*
X202524D01*
Y183500D01*
X206313D01*
X206243Y183851D01*
X205762Y184573D01*
X205040Y185055D01*
X204189Y185224D01*
D02*
G37*
G36*
X201524D02*
X199858D01*
X199007Y185055D01*
X198286Y184573D01*
X197804Y183851D01*
X197734Y183500D01*
X201524D01*
Y185224D01*
D02*
G37*
G36*
X206313Y182500D02*
X202524D01*
Y180776D01*
X204189D01*
X205040Y180946D01*
X205762Y181428D01*
X206243Y182149D01*
X206313Y182500D01*
D02*
G37*
G36*
X201524D02*
X197734D01*
X197804Y182149D01*
X198286Y181428D01*
X199007Y180946D01*
X199858Y180776D01*
X201524D01*
Y182500D01*
D02*
G37*
G36*
X136358Y184118D02*
X132905D01*
Y178500D01*
X136358D01*
Y184118D01*
D02*
G37*
G36*
Y177500D02*
X132905D01*
Y171882D01*
X136358D01*
Y177500D01*
D02*
G37*
G36*
X123331Y194677D02*
X118764D01*
Y189323D01*
X119642D01*
Y184024D01*
X116736D01*
Y171976D01*
X124453D01*
Y172500D01*
X128453D01*
Y171882D01*
X131905D01*
Y178000D01*
Y184118D01*
X128453D01*
Y183500D01*
X124453D01*
Y184024D01*
X122452D01*
Y189323D01*
X123331D01*
Y194677D01*
D02*
G37*
G36*
X206807Y169543D02*
X200697D01*
Y165500D01*
X206807D01*
Y169543D01*
D02*
G37*
G36*
Y164500D02*
X200697D01*
Y160457D01*
X206807D01*
Y164500D01*
D02*
G37*
G36*
X213917Y169543D02*
X213716Y169543D01*
X207807D01*
Y165000D01*
Y160457D01*
X213716D01*
X213917Y160457D01*
X214378Y160551D01*
X227209D01*
Y163595D01*
X229192D01*
X229354Y163354D01*
X230109Y162849D01*
X231000Y162672D01*
X231891Y162849D01*
X232646Y163354D01*
X232807Y163595D01*
X235823D01*
Y162319D01*
X235823Y162280D01*
X235728Y161819D01*
X235728Y161815D01*
Y159744D01*
X238500D01*
X241272D01*
Y161815D01*
X241272Y161819D01*
X241177Y162280D01*
X241177Y162319D01*
Y167236D01*
X235823D01*
Y166405D01*
X232807D01*
X232646Y166646D01*
X231891Y167151D01*
X231000Y167328D01*
X230109Y167151D01*
X229354Y166646D01*
X229192Y166405D01*
X227209D01*
Y169449D01*
X214378D01*
X213917Y169543D01*
D02*
G37*
G36*
X241272Y158744D02*
X239000D01*
Y156669D01*
X241272D01*
Y158744D01*
D02*
G37*
G36*
X238000D02*
X235728D01*
Y156669D01*
X238000D01*
Y158744D01*
D02*
G37*
G36*
X112614Y150043D02*
X106504D01*
Y146000D01*
X112614D01*
Y150043D01*
D02*
G37*
G36*
X152000Y148828D02*
X151109Y148651D01*
X150354Y148146D01*
X149849Y147391D01*
X149672Y146500D01*
X149728Y146215D01*
X146695Y143182D01*
X146391Y142727D01*
X146284Y142189D01*
Y133850D01*
X144815D01*
Y122343D01*
X144315Y122043D01*
X143630Y122409D01*
X142532Y122742D01*
X141955Y122799D01*
X141635Y123571D01*
X141048Y124336D01*
X140284Y124923D01*
X139393Y125292D01*
X138437Y125417D01*
X137481Y125292D01*
X136591Y124923D01*
X135826Y124336D01*
X135239Y123571D01*
X134919Y122799D01*
X134342Y122742D01*
X133244Y122409D01*
X132231Y121868D01*
X131344Y121140D01*
X130616Y120253D01*
X130075Y119241D01*
X129742Y118142D01*
X129629Y117000D01*
X129742Y115858D01*
X130075Y114759D01*
X130616Y113747D01*
X131344Y112860D01*
X132231Y112132D01*
X133244Y111591D01*
X134342Y111258D01*
X134919Y111201D01*
X135239Y110429D01*
X135826Y109664D01*
X136591Y109077D01*
X137481Y108708D01*
X138437Y108583D01*
X139393Y108708D01*
X140284Y109077D01*
X141048Y109664D01*
X141635Y110429D01*
X141955Y111201D01*
X142532Y111258D01*
X143630Y111591D01*
X144643Y112132D01*
X145530Y112860D01*
X146258Y113747D01*
X146799Y114759D01*
X147132Y115858D01*
X147245Y117000D01*
X147132Y118142D01*
X146799Y119241D01*
X146258Y120253D01*
X145719Y120909D01*
X145956Y121409D01*
X150563D01*
Y133850D01*
X149094D01*
Y141607D01*
X151715Y144228D01*
X152000Y144172D01*
X152891Y144349D01*
X153646Y144854D01*
X154151Y145609D01*
X154328Y146500D01*
X154151Y147391D01*
X153646Y148146D01*
X152891Y148651D01*
X152000Y148828D01*
D02*
G37*
G36*
X190677Y158831D02*
X185323D01*
Y154264D01*
X188297D01*
X190095Y152465D01*
Y147736D01*
X188823D01*
Y142819D01*
X188823Y142780D01*
X188728Y142319D01*
X188728Y142315D01*
Y140244D01*
X191500D01*
X194272D01*
Y142315D01*
X194272Y142319D01*
X194177Y142780D01*
X194177Y142819D01*
Y143851D01*
X195021D01*
X195354Y143354D01*
X196109Y142849D01*
X197000Y142672D01*
X197891Y142849D01*
X198646Y143354D01*
X199151Y144109D01*
X199328Y145000D01*
X199151Y145891D01*
X198646Y146646D01*
X197891Y147151D01*
X197000Y147328D01*
X196109Y147151D01*
X195376Y146661D01*
X194177D01*
Y147736D01*
X192905D01*
Y153047D01*
X192798Y153585D01*
X192493Y154041D01*
X190677Y155857D01*
Y158831D01*
D02*
G37*
G36*
X245595Y147618D02*
X242142D01*
Y142000D01*
X245595D01*
Y147618D01*
D02*
G37*
G36*
X112614Y145000D02*
X106504D01*
Y140957D01*
X112614D01*
Y145000D01*
D02*
G37*
G36*
X206614Y142543D02*
X200504D01*
Y138500D01*
X206614D01*
Y142543D01*
D02*
G37*
G36*
X250047Y147618D02*
X246595D01*
Y141500D01*
Y135382D01*
X249500D01*
Y131618D01*
X246595D01*
Y125500D01*
Y119382D01*
X250047D01*
Y119500D01*
X254047D01*
Y119476D01*
X261764D01*
Y123095D01*
X265823D01*
Y122216D01*
X271177D01*
Y126784D01*
X265823D01*
Y125905D01*
X261764D01*
Y131524D01*
X254500D01*
Y135476D01*
X261764D01*
Y138642D01*
X265823D01*
Y137764D01*
X271177D01*
Y142331D01*
X265823D01*
Y141452D01*
X261764D01*
Y147524D01*
X254047D01*
Y147500D01*
X250047D01*
Y147618D01*
D02*
G37*
G36*
X194272Y139244D02*
X192000D01*
Y137169D01*
X194272D01*
Y139244D01*
D02*
G37*
G36*
X191000D02*
X188728D01*
Y137169D01*
X191000D01*
Y139244D01*
D02*
G37*
G36*
X186272D02*
X184000D01*
Y137169D01*
X186272D01*
Y139244D01*
D02*
G37*
G36*
X183000D02*
X180728D01*
Y137169D01*
X183000D01*
Y139244D01*
D02*
G37*
G36*
X178272D02*
X176000D01*
Y137169D01*
X178272D01*
Y139244D01*
D02*
G37*
G36*
X175000D02*
X172728D01*
Y137169D01*
X175000D01*
Y139244D01*
D02*
G37*
G36*
X119724Y150043D02*
X119523Y150043D01*
X113614D01*
Y145500D01*
Y140957D01*
X119523D01*
X119724Y140957D01*
X120185Y141051D01*
X133016D01*
Y144095D01*
X135918D01*
X136595Y143418D01*
Y140807D01*
X136354Y140646D01*
X135849Y139891D01*
X135672Y139000D01*
X135849Y138109D01*
X136354Y137354D01*
X137109Y136849D01*
X138000Y136672D01*
X138891Y136849D01*
X139646Y137354D01*
X140151Y138109D01*
X140328Y139000D01*
X140151Y139891D01*
X139646Y140646D01*
X139405Y140807D01*
Y144000D01*
X139298Y144538D01*
X138994Y144993D01*
X137494Y146493D01*
X137038Y146798D01*
X136500Y146905D01*
X133016D01*
Y149949D01*
X120185D01*
X119724Y150043D01*
D02*
G37*
G36*
X245595Y141000D02*
X242142D01*
Y135382D01*
X245595D01*
Y141000D01*
D02*
G37*
G36*
X183500Y136405D02*
X182962Y136298D01*
X182507Y135994D01*
X182202Y135538D01*
X182095Y135000D01*
X182202Y134462D01*
X182507Y134007D01*
X182962Y133702D01*
X183500Y133595D01*
X184038Y133702D01*
X184494Y134007D01*
X184798Y134462D01*
X184905Y135000D01*
X184798Y135538D01*
X184494Y135994D01*
X184038Y136298D01*
X183500Y136405D01*
D02*
G37*
G36*
X206614Y137500D02*
X200504D01*
Y133457D01*
X206614D01*
Y137500D01*
D02*
G37*
G36*
X178217Y133945D02*
X175748D01*
Y128130D01*
X178217D01*
Y133945D01*
D02*
G37*
G36*
X174748D02*
X172280D01*
Y128130D01*
X174748D01*
Y133945D01*
D02*
G37*
G36*
X245595Y131618D02*
X242142D01*
Y126000D01*
X245595D01*
Y131618D01*
D02*
G37*
G36*
X174748Y127130D02*
X172280D01*
Y121315D01*
X174748D01*
Y127130D01*
D02*
G37*
G36*
X245595Y125000D02*
X242142D01*
Y119382D01*
X245595D01*
Y125000D01*
D02*
G37*
G36*
X170327Y120939D02*
X169307Y120805D01*
X168357Y120412D01*
X167541Y119785D01*
X166915Y118970D01*
X166522Y118019D01*
X166388Y117000D01*
X166522Y115981D01*
X166915Y115030D01*
X167541Y114215D01*
X168357Y113589D01*
X169307Y113195D01*
X170327Y113061D01*
X171346Y113195D01*
X172296Y113589D01*
X173112Y114215D01*
X173738Y115030D01*
X174132Y115981D01*
X174266Y117000D01*
X174132Y118019D01*
X173738Y118970D01*
X173112Y119785D01*
X172296Y120412D01*
X171346Y120805D01*
X170327Y120939D01*
D02*
G37*
G36*
X222772Y113500D02*
X220500D01*
Y111425D01*
X222772D01*
Y113500D01*
D02*
G37*
G36*
X219500D02*
X217228D01*
Y111425D01*
X219500D01*
Y113500D01*
D02*
G37*
G36*
X229272Y113488D02*
X227000D01*
Y111413D01*
X229272D01*
Y113488D01*
D02*
G37*
G36*
X226000D02*
X223728D01*
Y111413D01*
X226000D01*
Y113488D01*
D02*
G37*
G36*
X178217Y127130D02*
X175748D01*
Y121315D01*
X176904D01*
X177140Y120815D01*
X176679Y120253D01*
X176138Y119241D01*
X175805Y118142D01*
X175692Y117000D01*
X175805Y115858D01*
X176138Y114759D01*
X176679Y113747D01*
X177407Y112860D01*
X178294Y112132D01*
X179307Y111591D01*
X180405Y111258D01*
X180982Y111201D01*
X181302Y110429D01*
X181889Y109664D01*
X182653Y109077D01*
X183544Y108708D01*
X184500Y108583D01*
X185456Y108708D01*
X186346Y109077D01*
X187111Y109664D01*
X187698Y110429D01*
X188018Y111201D01*
X188595Y111258D01*
X189693Y111591D01*
X190706Y112132D01*
X191593Y112860D01*
X192321Y113747D01*
X192862Y114759D01*
X193195Y115858D01*
X193308Y117000D01*
X193195Y118142D01*
X192862Y119241D01*
X192321Y120253D01*
X191593Y121140D01*
X190706Y121868D01*
X189693Y122409D01*
X188595Y122742D01*
X188018Y122799D01*
X187698Y123571D01*
X187111Y124336D01*
X186346Y124923D01*
X185456Y125292D01*
X184500Y125417D01*
X183544Y125292D01*
X182653Y124923D01*
X181889Y124336D01*
X181302Y123571D01*
X180982Y122799D01*
X180405Y122742D01*
X179307Y122409D01*
X178717Y122094D01*
X178217Y122394D01*
Y127130D01*
D02*
G37*
G36*
X136500Y299328D02*
X135609Y299151D01*
X134854Y298646D01*
X134349Y297891D01*
X134172Y297000D01*
X134349Y296109D01*
X134854Y295354D01*
X135609Y294849D01*
X136500Y294672D01*
X136785Y294728D01*
X137727Y293786D01*
X137461Y293520D01*
Y288480D01*
X139980Y285961D01*
X145020D01*
X147539Y288480D01*
Y293520D01*
X145020Y296039D01*
X139980D01*
X139714Y295773D01*
X138772Y296715D01*
X138828Y297000D01*
X138651Y297891D01*
X138146Y298646D01*
X137391Y299151D01*
X136500Y299328D01*
D02*
G37*
G36*
X111000Y287921D02*
Y284500D01*
X114421D01*
X114351Y285032D01*
X113953Y285993D01*
X113319Y286819D01*
X112493Y287453D01*
X111532Y287851D01*
X111000Y287921D01*
D02*
G37*
G36*
X114421Y283500D02*
X111000D01*
Y280079D01*
X111532Y280149D01*
X112493Y280547D01*
X113319Y281181D01*
X113953Y282007D01*
X114351Y282968D01*
X114421Y283500D01*
D02*
G37*
%LPD*%
D15*
X151094Y157445D02*
D03*
X153063D02*
D03*
X155032D02*
D03*
X157000D02*
D03*
X158968D02*
D03*
X160937D02*
D03*
X162906D02*
D03*
Y175555D02*
D03*
X160937D02*
D03*
X158968D02*
D03*
X157000D02*
D03*
X155032D02*
D03*
X153063D02*
D03*
X151094D02*
D03*
D16*
X166055Y160594D02*
D03*
Y162563D02*
D03*
Y164532D02*
D03*
Y166500D02*
D03*
Y168468D02*
D03*
Y170437D02*
D03*
Y172406D02*
D03*
X147945D02*
D03*
Y170437D02*
D03*
Y168468D02*
D03*
Y166500D02*
D03*
Y164532D02*
D03*
Y162563D02*
D03*
Y160594D02*
D03*
D17*
X157000Y166500D02*
D03*
D18*
X112000Y240500D02*
D03*
X142500Y291000D02*
D03*
Y277000D02*
D03*
Y264500D02*
D03*
X139500Y249500D02*
D03*
D19*
X135016Y204445D02*
D03*
Y213500D02*
D03*
Y222555D02*
D03*
D20*
X111984Y213500D02*
D03*
D21*
X172500Y357906D02*
D03*
Y352000D02*
D03*
X172500Y343953D02*
D03*
Y338047D02*
D03*
X129500Y289047D02*
D03*
Y294953D02*
D03*
X215500Y218000D02*
D03*
Y223905D02*
D03*
X268500Y140047D02*
D03*
Y145953D02*
D03*
X268500Y124500D02*
D03*
Y130405D02*
D03*
X188000Y156547D02*
D03*
Y162453D02*
D03*
D22*
X206854Y324248D02*
D03*
X176146D02*
D03*
X206854Y275429D02*
D03*
X176146D02*
D03*
X195043Y324248D02*
D03*
X180870D02*
D03*
X183232D02*
D03*
X185594D02*
D03*
X187957D02*
D03*
X190319D02*
D03*
X192681D02*
D03*
X197406D02*
D03*
X199768D02*
D03*
X202130D02*
D03*
X204492D02*
D03*
X178508D02*
D03*
X204492Y275429D02*
D03*
X178508D02*
D03*
X180870D02*
D03*
X183232D02*
D03*
X185594D02*
D03*
X190319D02*
D03*
X192681D02*
D03*
X195043D02*
D03*
X197406D02*
D03*
X199768D02*
D03*
X202130D02*
D03*
X187957D02*
D03*
D23*
X171028Y282122D02*
D03*
Y284484D02*
D03*
Y317555D02*
D03*
Y315193D02*
D03*
X211972Y317555D02*
D03*
Y315193D02*
D03*
Y282122D02*
D03*
Y284484D02*
D03*
Y296295D02*
D03*
X211972Y310469D02*
D03*
Y308106D02*
D03*
X211972Y305744D02*
D03*
X211972Y303382D02*
D03*
X211972Y301020D02*
D03*
Y298657D02*
D03*
Y293933D02*
D03*
Y291571D02*
D03*
Y289209D02*
D03*
Y286846D02*
D03*
Y312831D02*
D03*
X171028Y286846D02*
D03*
Y312831D02*
D03*
Y310469D02*
D03*
Y308106D02*
D03*
Y305744D02*
D03*
Y301020D02*
D03*
Y298657D02*
D03*
X171028Y296295D02*
D03*
X171028Y293933D02*
D03*
X171028Y291571D02*
D03*
Y289209D02*
D03*
X171028Y303382D02*
D03*
D24*
X191500Y291177D02*
D03*
Y308500D02*
D03*
D25*
X218047Y265000D02*
D03*
X223953D02*
D03*
X120595Y231500D02*
D03*
X126500D02*
D03*
X121047Y192000D02*
D03*
X126953D02*
D03*
D26*
X229976Y183000D02*
D03*
Y188000D02*
D03*
Y193000D02*
D03*
Y198000D02*
D03*
X202024Y183000D02*
D03*
Y188000D02*
D03*
Y193000D02*
D03*
Y198000D02*
D03*
D27*
X184912Y200588D02*
D03*
X189088Y196412D02*
D03*
D28*
X226500Y113988D02*
D03*
Y119500D02*
D03*
X220000Y114000D02*
D03*
Y119512D02*
D03*
X238500Y159244D02*
D03*
Y164756D02*
D03*
X183500Y139744D02*
D03*
Y145256D02*
D03*
X175500Y139744D02*
D03*
Y145256D02*
D03*
X191500Y139744D02*
D03*
Y145256D02*
D03*
D29*
X228756Y275000D02*
D03*
X223244D02*
D03*
D30*
X246094Y125500D02*
D03*
X257906D02*
D03*
X246094Y141500D02*
D03*
X257906D02*
D03*
X132405Y178000D02*
D03*
X120595D02*
D03*
D31*
X220693Y165000D02*
D03*
X207307D02*
D03*
X220500Y138000D02*
D03*
X207114D02*
D03*
X126500Y145500D02*
D03*
X113114D02*
D03*
D32*
X147689Y127630D02*
D03*
X157531D02*
D03*
X165405D02*
D03*
X175248D02*
D03*
D58*
X196744Y145256D02*
X197000Y145000D01*
X191500Y145256D02*
X196744D01*
X195043Y324248D02*
Y330457D01*
X190500Y335000D02*
X195043Y330457D01*
X190500Y335000D02*
Y341000D01*
X232000Y140000D02*
Y146000D01*
X229000Y149000D02*
X232000Y146000D01*
X200500Y149000D02*
X229000D01*
X196500Y153000D02*
X200500Y149000D01*
X170500Y191000D02*
X196500Y165000D01*
Y153000D02*
Y165000D01*
X170500Y199000D02*
X178500Y207000D01*
X170500Y191000D02*
Y199000D01*
X220500Y138000D02*
X230000D01*
X232000Y140000D01*
X220000Y137500D02*
X220500Y138000D01*
X220000Y119512D02*
Y137500D01*
X231000Y165000D02*
X238256D01*
X112000Y231500D02*
Y240500D01*
X220693Y165000D02*
X231000D01*
X183500Y135000D02*
X183500Y135000D01*
X135000Y192000D02*
X135000Y192000D01*
X126953Y192000D02*
X135000D01*
X194000Y196000D02*
Y198500D01*
X186500Y206000D02*
X194000Y198500D01*
X186500Y206000D02*
Y245000D01*
X180500Y251000D02*
X186500Y245000D01*
X180500Y251000D02*
Y259000D01*
X228756Y275000D02*
X232256Y278500D01*
X238500D01*
X253500Y267500D02*
X257000Y264000D01*
X250650Y270350D02*
X253500Y267500D01*
X183232Y265917D02*
X196500Y252649D01*
X183232Y265917D02*
Y275429D01*
X185594Y266172D02*
X194467Y257299D01*
X185594Y266172D02*
Y275429D01*
X187957Y266426D02*
X195234Y259150D01*
X187957Y266426D02*
Y275429D01*
X190319Y266681D02*
X196000Y261000D01*
X190319Y266681D02*
Y275429D01*
X194000Y196000D02*
X197000Y193000D01*
X202024D01*
X230467Y257299D02*
X235846Y251920D01*
X231234Y259150D02*
X237697Y252686D01*
X232000Y261000D02*
X239547Y253453D01*
X194467Y257299D02*
X230467D01*
X235846Y230803D02*
Y251920D01*
X195234Y259150D02*
X231234D01*
X237697Y231569D02*
Y252686D01*
X196000Y261000D02*
X232000D01*
X239547Y232336D02*
Y253453D01*
X241398Y233102D02*
Y263602D01*
X243248Y234135D02*
Y282000D01*
X245098Y234902D02*
Y282785D01*
X246949Y254551D02*
X257500Y244000D01*
X246949Y254551D02*
Y283551D01*
X248799Y260201D02*
Y284318D01*
Y260201D02*
X255000Y254000D01*
X234500Y265000D02*
X237500Y262000D01*
X196500Y199000D02*
Y252649D01*
Y199000D02*
X197500Y198000D01*
X202024D01*
X206854Y271762D02*
X208266Y270350D01*
X206854Y271762D02*
Y275429D01*
X204492Y271008D02*
X207000Y268500D01*
X208266Y270350D02*
X235850D01*
X207000Y268500D02*
X236500D01*
X204492Y271008D02*
Y275429D01*
X202130Y265130D02*
Y275429D01*
X211500Y240500D02*
X222000D01*
X231000Y231500D01*
X135016Y222555D02*
X144055D01*
X145500Y224000D01*
Y244500D01*
X148000Y247000D01*
Y259000D01*
X142500Y264500D02*
X148000Y259000D01*
X125500Y269000D02*
X130500D01*
X138500Y277000D01*
X142500D01*
X136500Y297000D02*
X142500Y291000D01*
X133750Y278750D02*
X138500Y283500D01*
X147000Y271000D02*
X162847Y286846D01*
X136000Y271000D02*
X147000D01*
X129500Y283000D02*
X133750Y278750D01*
X104988Y329488D02*
X110500Y335000D01*
X104988Y175012D02*
Y329488D01*
X103138Y174245D02*
Y342638D01*
X104988Y175012D02*
X113500Y166500D01*
X103138Y174245D02*
X112852Y164532D01*
X103138Y342638D02*
X105500Y345000D01*
X129500Y294953D02*
Y302500D01*
X159247Y301020D02*
X171028D01*
X153873Y306394D02*
X159247Y301020D01*
X159501Y303382D02*
X171028D01*
X154639Y308244D02*
X159501Y303382D01*
X159756Y305744D02*
X171028D01*
X154500Y311000D02*
X159756Y305744D01*
X160426Y308106D02*
X171028D01*
X153533Y315000D02*
X160426Y308106D01*
X160681Y310469D02*
X171028D01*
X146150Y325000D02*
X160681Y310469D01*
X157500Y298657D02*
X171028D01*
X163867Y284484D02*
X171028D01*
X161709Y289209D02*
X171028D01*
X160816Y293933D02*
X171028D01*
X105500Y345000D02*
X110500D01*
X112852Y164532D02*
X147945D01*
X113500Y166500D02*
X147945D01*
X141606Y306394D02*
X153873D01*
X141000Y307000D02*
X141606Y306394D01*
X150953Y343953D02*
X172500D01*
X146308Y339308D02*
X150953Y343953D01*
X146308Y335308D02*
Y339308D01*
X160617Y321000D02*
X164000D01*
X146308Y335308D02*
X160617Y321000D01*
X162847Y286846D02*
X171028D01*
X156000Y283500D02*
X161709Y289209D01*
X138500Y283500D02*
X156000D01*
X156500Y287000D02*
X161071Y291571D01*
X151000Y287000D02*
X156500D01*
X160150Y280766D02*
X163867Y284484D01*
X160150Y278650D02*
Y280766D01*
X164122Y282122D02*
X171028D01*
X162000Y280000D02*
X164122Y282122D01*
X162000Y275500D02*
Y280000D01*
X165000Y271897D02*
Y277500D01*
X154000Y290500D02*
X154500Y290000D01*
X154000Y272500D02*
X160150Y278650D01*
X156740Y294000D02*
X159035Y296295D01*
X156500Y294000D02*
X156740D01*
X159035Y296295D02*
X171028D01*
X156883Y290000D02*
X160816Y293933D01*
X154500Y290000D02*
X156883D01*
X161071Y291571D02*
X171028D01*
X180500Y264000D02*
X191500Y253000D01*
Y240500D02*
Y253000D01*
X165000Y271897D02*
X167500Y269397D01*
Y251000D02*
Y269397D01*
Y251000D02*
X178000Y240500D01*
X164500Y247500D02*
Y268500D01*
X161500Y240500D02*
Y271000D01*
X164500Y247500D02*
X171500Y240500D01*
X178000D02*
X181500D01*
X151500Y265000D02*
X162000Y275500D01*
X151500Y240500D02*
Y265000D01*
X166055Y160594D02*
X169405D01*
X170500Y159500D01*
Y152000D02*
Y159500D01*
X147689Y142189D02*
X152000Y146500D01*
X147689Y127630D02*
Y142189D01*
X126500Y145500D02*
X136500D01*
X138000Y144000D01*
Y139000D02*
Y144000D01*
X160937Y145063D02*
X162500Y143500D01*
X160937Y145063D02*
Y157445D01*
X162906Y148594D02*
X166244Y145256D01*
X128055Y222555D02*
X135016D01*
X126953Y221453D02*
X128055Y222555D01*
X126953Y192000D02*
Y221453D01*
X120595Y178000D02*
X121047Y178453D01*
Y192000D01*
X215500Y195000D02*
Y198000D01*
Y195000D02*
X217500Y193000D01*
X229976D01*
X175500Y145256D02*
X183500D01*
X166244D02*
X175500D01*
X162906Y148594D02*
Y157445D01*
X188000Y156547D02*
X191500Y153047D01*
Y145256D02*
Y153047D01*
X187890Y162563D02*
X188000Y162453D01*
X166055Y162563D02*
X187890D01*
X159500Y327000D02*
X162854Y330354D01*
X176146D01*
X148756Y308244D02*
X154639D01*
X215500Y198000D02*
Y218000D01*
Y198000D02*
X229976D01*
X215406Y224000D02*
X215500Y223905D01*
X201500Y224000D02*
X215406D01*
X220000Y119512D02*
X220012Y119500D01*
X226500D01*
X223953Y265000D02*
X234500D01*
X238256Y165000D02*
X238500Y164756D01*
X274000Y162500D02*
X276650Y159850D01*
Y148650D02*
Y159850D01*
X273953Y145953D02*
X276650Y148650D01*
X267500Y162500D02*
X274000D01*
X268500Y145953D02*
X273953D01*
X267500Y172500D02*
X275500D01*
X278500Y169500D01*
Y133500D02*
Y169500D01*
X275406Y130405D02*
X278500Y133500D01*
X268500Y130405D02*
X275406D01*
X257906Y125500D02*
X258906Y124500D01*
X268500D01*
X257906Y141500D02*
X259358Y140047D01*
X268500D01*
X172500Y352000D02*
X172500Y352000D01*
Y343953D02*
Y352000D01*
X176146Y330354D02*
X176284Y330492D01*
X178508D01*
Y324248D02*
Y330492D01*
X172500Y338047D02*
X172500Y338047D01*
X172500Y334000D02*
Y338047D01*
Y334000D02*
X176146Y330354D01*
Y324248D02*
Y330354D01*
X146000Y311000D02*
X148756Y308244D01*
X144000Y311000D02*
X146000D01*
X150500D02*
X154500D01*
X243988Y188000D02*
X246744Y190756D01*
X229976Y188000D02*
X243988D01*
X246744Y190756D02*
Y193244D01*
X250449Y189449D02*
Y198051D01*
X249500Y199000D02*
X250449Y198051D01*
X249500Y199000D02*
Y202500D01*
X244000Y183000D02*
X250449Y189449D01*
X229976Y183000D02*
X244000D01*
X197500Y188000D02*
X202024D01*
X189088Y196412D02*
X197500Y188000D01*
X178500Y207000D02*
X184912Y200588D01*
X172000Y213500D02*
X178500Y207000D01*
X135016Y213500D02*
X172000D01*
X202024Y188000D02*
X202024Y188000D01*
X234878Y282122D02*
X238500Y278500D01*
X211972Y282122D02*
X234878D01*
X236500Y268500D02*
X241398Y263602D01*
X202000Y265000D02*
X218047D01*
X202000D02*
X202130Y265130D01*
X223244Y275000D02*
X223244Y275000D01*
X217500Y275000D02*
X223244D01*
X235850Y270350D02*
X238500Y273000D01*
Y278500D01*
X257000Y162500D02*
X267500D01*
X252299Y167201D02*
X257000Y162500D01*
X252299Y167201D02*
Y214350D01*
X256000Y188000D02*
X261500Y182500D01*
X256000Y188000D02*
Y215883D01*
X239547Y232336D02*
X256000Y215883D01*
X258150Y195350D02*
X261000Y192500D01*
X258150Y195350D02*
Y216350D01*
X241398Y233102D02*
X258150Y216350D01*
X260000Y210000D02*
X267500Y202500D01*
X260000Y210000D02*
Y217383D01*
X243248Y234135D02*
X260000Y217383D01*
X245098Y234902D02*
X267500Y212500D01*
X235846Y230803D02*
X252299Y214350D01*
X260500Y172500D02*
X267500D01*
X254150Y178850D02*
X260500Y172500D01*
X254150Y178850D02*
Y215117D01*
X237697Y231569D02*
X254150Y215117D01*
X261500Y182500D02*
X267500D01*
X261000Y192500D02*
X267500D01*
X202130Y324248D02*
Y344870D01*
X193500Y353500D02*
X202130Y344870D01*
X193500Y353500D02*
Y377500D01*
X239693Y315193D02*
X240098Y315598D01*
X211972Y315193D02*
X239693D01*
X240098Y315598D02*
Y371098D01*
X246000Y377000D01*
X267500D01*
X241949Y314416D02*
Y363449D01*
X240363Y312831D02*
X241949Y314416D01*
X211972Y312831D02*
X240363D01*
X241949Y363449D02*
X245500Y367000D01*
X267500D01*
X243799Y313650D02*
Y350799D01*
X240618Y310469D02*
X243799Y313650D01*
X211972Y310469D02*
X240618D01*
X243799Y350799D02*
X250000Y357000D01*
X267500D01*
X245650Y339150D02*
X253500Y347000D01*
X245650Y312883D02*
Y339150D01*
X240873Y308106D02*
X245650Y312883D01*
X247500Y312117D02*
Y330000D01*
X241127Y305744D02*
X247500Y312117D01*
X211972Y308106D02*
X240873D01*
X253500Y347000D02*
X267500D01*
X247500Y330000D02*
X254500Y337000D01*
X211972Y305744D02*
X241127D01*
X254500Y337000D02*
X267500D01*
X249500Y319500D02*
X257000Y327000D01*
X249500Y311500D02*
Y319500D01*
X241382Y303382D02*
X249500Y311500D01*
X211972Y303382D02*
X241382D01*
X257000Y327000D02*
X267500D01*
X257883Y317000D02*
X267500D01*
X241903Y301020D02*
X257883Y317000D01*
X211972Y301020D02*
X241903D01*
X250500Y307000D02*
X267500D01*
X242158Y298657D02*
X250500Y307000D01*
X211972Y298657D02*
X242158D01*
X240764Y284484D02*
X243248Y282000D01*
X211972Y284484D02*
X240764D01*
X241037Y286846D02*
X245098Y282785D01*
X241546Y291571D02*
X248799Y284318D01*
X250650Y270350D02*
Y285084D01*
X241801Y293933D02*
X250650Y285084D01*
X252500Y277500D02*
Y285851D01*
X242055Y296295D02*
X252500Y285851D01*
X211972Y286846D02*
X241037D01*
X211972Y296295D02*
X242055D01*
X211972Y293933D02*
X241801D01*
X211972Y291571D02*
X241546D01*
X241291Y289209D02*
X246949Y283551D01*
X211972Y289209D02*
X241291D01*
X257500Y244000D02*
X267500D01*
X255000Y254000D02*
X267500D01*
X252500Y277500D02*
X256000Y274000D01*
X257000Y264000D02*
X267500D01*
X256000Y274000D02*
X267500D01*
X126500Y236500D02*
Y246500D01*
X127000Y305000D02*
X129500Y302500D01*
X110500Y305000D02*
X127000D01*
X129000Y274000D02*
X133750Y278750D01*
X129500Y283000D02*
Y289047D01*
X110500Y305000D02*
X111000Y305500D01*
X126500Y236500D02*
X139500Y249500D01*
X126500Y231500D02*
Y236500D01*
X120500Y264000D02*
X129000D01*
X110500D02*
X120500D01*
X120595Y263906D01*
Y231500D02*
Y263906D01*
X110500Y274000D02*
X129000D01*
Y264000D02*
X136000Y271000D01*
X110500Y315000D02*
X153533D01*
X110500Y325000D02*
X146150D01*
X124000Y355000D02*
X161445Y317555D01*
X110500Y355000D02*
X124000D01*
X131383Y345000D02*
X161190Y315193D01*
X110500Y345000D02*
X131383D01*
X138766Y335000D02*
X160936Y312831D01*
X110500Y335000D02*
X138766D01*
X160936Y312831D02*
X171028D01*
X161190Y315193D02*
X171028D01*
X161445Y317555D02*
X171028D01*
D59*
X158968Y140969D02*
Y157445D01*
X157000Y142000D02*
Y157445D01*
X155500Y140500D02*
X157000Y142000D01*
X155500Y134775D02*
Y140500D01*
X154224Y133499D02*
X155500Y134775D01*
X155579Y120405D02*
X165405D01*
X154224Y121760D02*
X155579Y120405D01*
X154224Y121760D02*
Y133499D01*
X165405Y120405D02*
Y127630D01*
X157500Y127661D02*
X157531Y127630D01*
X157500Y127661D02*
Y139500D01*
X158968Y140969D01*
D60*
X183658Y387343D02*
D03*
X203343D02*
D03*
Y367657D02*
D03*
X183658D02*
D03*
X193500Y377500D02*
D03*
D61*
X161500Y224000D02*
D03*
X171500D02*
D03*
X181500D02*
D03*
X191500D02*
D03*
X211500Y240500D02*
D03*
X201500D02*
D03*
X191500D02*
D03*
X181500D02*
D03*
X161500D02*
D03*
X171500D02*
D03*
X110500Y365000D02*
D03*
Y355000D02*
D03*
Y345000D02*
D03*
Y335000D02*
D03*
Y315000D02*
D03*
Y325000D02*
D03*
X267500Y172500D02*
D03*
Y182500D02*
D03*
Y192500D02*
D03*
Y202500D02*
D03*
Y212500D02*
D03*
Y317000D02*
D03*
Y327000D02*
D03*
Y337000D02*
D03*
Y347000D02*
D03*
Y357000D02*
D03*
Y367000D02*
D03*
Y377000D02*
D03*
Y244000D02*
D03*
Y254000D02*
D03*
Y264000D02*
D03*
Y274000D02*
D03*
Y284000D02*
D03*
X110500D02*
D03*
Y274000D02*
D03*
Y264000D02*
D03*
D62*
X201500Y224000D02*
D03*
X151500Y240500D02*
D03*
D63*
X170327Y117000D02*
D03*
X152610D02*
D03*
D64*
X184500D02*
D03*
X138437D02*
D03*
D65*
X110500Y305000D02*
D03*
X267500Y162500D02*
D03*
Y307000D02*
D03*
Y234000D02*
D03*
X110500Y254000D02*
D03*
D66*
X183500Y135000D02*
D03*
X197000Y145000D02*
D03*
X176500Y269000D02*
D03*
X213000Y279000D02*
D03*
X190500Y341000D02*
D03*
X112000Y231500D02*
D03*
X231000Y165000D02*
D03*
X135000Y192000D02*
D03*
X180500Y259000D02*
D03*
X253500Y267500D02*
D03*
X237500Y262000D02*
D03*
X191500Y308500D02*
D03*
Y291177D02*
D03*
X157000Y166500D02*
D03*
X231000Y231500D02*
D03*
X125500Y269000D02*
D03*
X136500Y297000D02*
D03*
X157500Y298657D02*
D03*
X141000Y307000D02*
D03*
X164000Y321000D02*
D03*
X165000Y277500D02*
D03*
X154000Y290500D02*
D03*
Y272500D02*
D03*
X180500Y264000D02*
D03*
X151000Y287000D02*
D03*
X164500Y268500D02*
D03*
X156500Y294000D02*
D03*
X161500Y271000D02*
D03*
X170500Y152000D02*
D03*
X152000Y146500D02*
D03*
X138000Y139000D02*
D03*
X162500Y143500D02*
D03*
X159500Y327000D02*
D03*
X144000Y311000D02*
D03*
X150500D02*
D03*
X246744Y193244D02*
D03*
X249500Y202500D02*
D03*
X178500Y207000D02*
D03*
X202000Y265000D02*
D03*
X217500Y275000D02*
D03*
X238500Y278500D02*
D03*
X126500Y246500D02*
D03*
M02*
